<?xml version="1.0" encoding="UTF-8" standalone="no"?>
<!-- Created with Inkscape (http://www.inkscape.org/) -->

<svg
   version="1.1"
   id="svg9"
   width="429"
   height="134"
   viewBox="0 0 429 134"
   sodipodi:docname="logo.svg"
   inkscape:version="1.1.1 (3bf5ae0d25, 2021-09-20)"
   xmlns:inkscape="http://www.inkscape.org/namespaces/inkscape"
   xmlns:sodipodi="http://sodipodi.sourceforge.net/DTD/sodipodi-0.dtd"
   xmlns="http://www.w3.org/2000/svg"
   xmlns:svg="http://www.w3.org/2000/svg">
  <defs
     id="defs13" />
  <sodipodi:namedview
     id="namedview11"
     pagecolor="#ffffff"
     bordercolor="#666666"
     borderopacity="1.0"
     inkscape:pageshadow="2"
     inkscape:pageopacity="0.0"
     inkscape:pagecheckerboard="0"
     showgrid="false"
     inkscape:zoom="1.28"
     inkscape:cx="228.125"
     inkscape:cy="248.82812"
     inkscape:window-width="1920"
     inkscape:window-height="1017"
     inkscape:window-x="-8"
     inkscape:window-y="-8"
     inkscape:window-maximized="1"
     inkscape:current-layer="g15"
     height="499px" />
  <g
     inkscape:groupmode="layer"
     inkscape:label="Image"
     id="g15">
    <path
       style="fill:#004aad;fill-opacity:1;stroke:none;stroke-width:0.657094"
       d="M 32.956273,56.02894 C 30.237204,51.70218 22.031956,38.19203 14.722382,26.00641 L 1.432269,3.85071 6.978706,3.4328 C 14.132805,2.89377 75.38898,2.76112 75.38898,3.28467 c 0,1.84661 -35.848701,60.61115 -36.975221,60.61115 -0.282551,0 -2.738433,-3.54009 -5.457486,-7.86688 z"
       id="path264" />
    <path
       id="path99"
       style="fill:#004aad;fill-opacity:1;stroke:none;stroke-width:1.68216"
       d="M 64.2752,2.51495 C 57.40846,2.47125 48.036536,2.50495 37.815239,2.62734 L 0.648256,3.07366 19.060301,33.84116 C 29.187414,50.76359 37.875365,64.63506 38.366559,64.66645 39.662014,64.74945 76.55486,3.68315 75.70163,2.86815 75.50442,2.67982 71.14194,2.55868 64.2752,2.51495 Z m 291.96387,14.69661 c -10.86971,-0.21564 -17.63165,3.26156 -20.07273,10.32647 -3.61528,10.4632 1.01636,17.42754 17.79685,26.76021 4.61852,2.56864 9.51774,6.28079 10.88519,8.24898 2.24657,3.23351 2.12211,3.92618 -1.28416,7.17971 -3.82645,3.65488 -8.65923,3.79312 -22.5604,0.64221 -3.69778,-0.83817 -4.79225,-0.34997 -5.76531,2.57841 -1.56767,4.71786 0.33905,6.3284 9.59093,8.10448 8.02728,1.54099 19.3953,0.72939 24.31519,-1.73713 8.10575,-4.06371 11.00389,-17.57113 5.23082,-24.38089 -1.66826,-1.96785 -8.44545,-6.68381 -15.06042,-10.47739 -9.62575,-5.52023 -12.13695,-7.79572 -12.57278,-11.39894 -0.74169,-6.13216 5.41417,-8.42203 16.34797,-6.08157 8.95641,1.91717 8.91412,1.9332 9.54723,-3.3362 0.54892,-4.56877 -3.54418,-6.17337 -16.39838,-6.42835 z m -58.7861,0.40137 c -1.4572,0.42436 -29.87491,59.24568 -30.10741,62.31847 -0.0513,0.67816 2.47271,1.23301 5.61069,1.23301 4.82579,0 6.14921,-0.88709 8.57905,-5.75405 l 2.87427,-5.75406 h 13.47705 13.48045 l 2.87088,5.75406 c 2.34536,4.69776 3.82632,5.75405 8.06472,5.75405 2.85529,0 5.19375,-0.55485 5.19719,-1.23301 0.0138,-3.32751 -28.62806,-62.73165 -30.04689,-62.31847 z M 166.74662,17.8698 c -0.84602,0 -6.48741,12.5488 -12.5358,27.88727 -9.8526,24.98577 -10.78783,28.37286 -8.97238,32.55921 1.11447,2.56993 2.61648,4.0775 3.33818,3.34904 0.72171,-0.72845 4.99436,-10.41621 9.49344,-21.52954 4.49906,-11.11333 8.72271,-19.62111 9.38588,-18.90618 0.66316,0.71493 4.94177,10.37591 9.50688,21.46853 4.56512,11.09261 8.85717,19.6004 9.54052,18.90617 1.51612,-1.54029 27.39116,-59.71471 27.39116,-61.58314 0,-0.73189 -2.51724,-1.32465 -5.59387,-1.31971 -5.52936,0.0103 -5.681,0.22362 -13.14763,18.49518 -4.15457,10.16661 -8.09992,19.07152 -8.76732,19.78918 -0.66741,0.71768 -5.01358,-7.79012 -9.65816,-18.90618 -4.64459,-11.11605 -9.13488,-20.20983 -9.9809,-20.20983 z m -41.68511,0.82201 c -3.20689,0 -5.83255,0.20566 -5.83255,0.45916 0,0.39691 5.12337,12.12125 14.88898,34.06518 l 2.56161,5.75406 2.46413,-5.53251 c 3.28006,-7.36835 3.27785,-7.36597 -2.88771,-22.00476 -5.21253,-12.37604 -5.53083,-12.74113 -11.19446,-12.74113 z m 99.16014,0 v 31.23631 31.23629 h 5.16358 5.16357 V 70.47832 59.79221 h 12.04834 c 11.6443,0 12.04834,-0.13662 12.04834,-4.03618 0,-3.83738 -0.56883,-4.05874 -11.61804,-4.52105 L 235.4094,50.75013 234.90514,38.83101 234.39751,26.91189 h 13.84687 c 13.62047,0 13.84349,-0.0667 13.84349,-4.11004 v -4.11004 h -18.93311 z m 160.07083,0 v 4.11004 c 0,3.77516 0.63111,4.11004 7.74536,4.11004 h 7.74536 v 27.22902 27.22901 l 5.59388,-0.51376 5.59387,-0.51375 0.474,-26.71525 0.474,-26.71527 h 7.70166 c 7.06878,0 7.70166,-0.33826 7.70166,-4.11004 v -4.11004 h -21.5149 z m -85.98227,20.84882 c 0.73762,0.73863 3.29119,5.9692 5.67454,11.6205 l 4.33324,10.2751 h -10.20613 c -5.61362,0 -10.20612,-0.36338 -10.20612,-0.80596 0,-3.21427 9.34298,-22.15259 10.40447,-21.08964 z M 38.625411,67.77789 31.834771,78.99058 C 20.336694,97.96924 4.505264,124.53655 2.372811,128.42988 l -2.027108,3.69903 h 38.111621 c 31.822816,0 37.960216,-0.3787 37.193876,-2.28622 -0.50477,-1.25644 -9.04106,-15.73458 -18.97009,-32.17389 z m -0.03361,11.74572 c 0.834072,-0.003 18.688939,28.37764 25.078299,39.86418 0.37723,0.67816 -11.02444,1.23301 -25.333788,1.23301 h -26.01622 l 4.407192,-6.98707 c 2.423989,-3.84288 8.083217,-13.09021 12.57613,-20.54699 4.49293,-7.45677 8.67273,-13.55985 9.288383,-13.56313 z" />
    <path
       style="fill:#004aad;fill-opacity:1;stroke:none;stroke-width:0.657094"
       d="m 42.836241,74.25712 c -0.289625,-0.44762 -0.345013,-0.98726 -0.123066,-1.19925 0.601712,-0.57472 1.257778,0.27056 0.932783,1.20183 -0.227731,0.65259 -0.386098,0.65209 -0.8097,-0.003 z"
       id="path303" />
    <path
       style="fill:#004aad;fill-opacity:1;stroke:none;stroke-width:0.657094"
       d="m 3.522123,126.99136 c 2.563525,-4.46556 13.179732,-22.24603 29.348693,-49.15444 3.139299,-5.22444 5.778677,-9.41475 5.865271,-9.31181 0.192549,0.22891 12.425243,20.52833 24.791803,41.14049 10.58022,17.63473 12.09562,20.36624 11.57491,20.8636 -0.95612,0.91325 -14.56934,1.35142 -43.294957,1.39351 l -31.142847,0.0457 z m 49.469937,-6.36183 c 5.24659,-0.22926 9.88314,-0.61984 10.30344,-0.86796 1.30067,-0.7678 -23.136435,-40.4531 -24.9099,-40.4531 -0.311432,0 -2.20118,2.52865 -4.199449,5.6192 -5.123609,7.92425 -21.997174,35.37231 -21.997174,35.78256 0,0.47895 29.322583,0.42097 40.803083,-0.0807 z"
       id="path342" />
    <path
       style="fill:#004aad;fill-opacity:1;stroke:none;stroke-width:0.657094"
       d="M 32.836496,55.06567 C 30.004791,50.56228 21.942178,37.34112 14.919579,25.68529 L 2.151228,4.49291 3.976483,4.08725 C 6.258817,3.57999 74.71665,3.39483 74.71665,3.8959 c 0,1.65498 -35.328025,59.33697 -36.350895,59.3521 -0.209383,0.003 -2.697538,-3.67894 -5.529259,-8.18233 z"
       id="path418" />
    <path
       style="fill:#004aad;fill-opacity:1;stroke:none;stroke-width:0.657094"
       d="m 146.19568,79.53278 c -1.93753,-2.83137 -1.43761,-7.75388 1.65329,-16.27914 7.53305,-20.77753 18.02027,-45.19804 19.12893,-44.54357 0.83818,0.49481 4.94964,8.88912 9.07811,18.53472 1.66295,3.88526 4.50901,10.08199 6.32457,13.77048 2.86052,5.81138 3.42826,6.58269 4.25436,5.77974 0.52431,-0.50963 3.88156,-7.8623 7.46056,-16.33925 9.25032,-21.90965 8.98666,-21.5135 14.31773,-21.5135 3.23496,0 4.80557,0.51146 4.80557,1.56491 0,2.65633 -25.77272,60.08569 -26.96481,60.08569 -0.94635,0 -4.31716,-6.89388 -10.45648,-21.38532 -5.70276,-13.46094 -8.03151,-18.43068 -8.63638,-18.43068 -0.70987,0 -4.3452,7.69804 -11.04414,23.38664 -3.90869,9.154 -7.46562,16.75785 -7.90428,16.89746 -0.43868,0.13958 -1.34634,-0.54807 -2.01703,-1.52818 z"
       id="path457" />
    <path
       style="fill:#004aad;fill-opacity:1;stroke:none;stroke-width:0.657094"
       d="M 32.764877,54.25121 C 21.642364,36.57442 2.903371,5.13704 3.208298,4.66576 3.384083,4.39409 19.426467,4.17182 38.85805,4.17182 c 32.71271,0 35.29823,0.0794 34.89969,1.07139 -1.36112,3.38799 -34.629239,57.36823 -35.356133,57.36823 -0.20699,0 -2.74351,-3.76211 -5.63673,-8.36023 z"
       id="path533" />
    <path
       style="fill:#004aad;fill-opacity:1;stroke:none;stroke-width:0.657094"
       d="m 127.985,38.6821 c -4.53793,-10.3271 -8.24421,-18.99329 -8.23616,-19.25819 0.009,-0.26489 2.01111,-0.48165 4.45126,-0.48165 4.02804,0 4.60426,0.17141 6.2569,1.86123 2.61542,2.67429 10.30412,21.36276 10.32651,25.10006 0.0172,2.74284 -3.12858,11.5801 -4.11494,11.56271 -0.23802,-0.005 -4.14563,-8.45709 -8.68357,-18.78416 z"
       id="path572" />
    <path
       style="fill:#004aad;fill-opacity:1;stroke:none;stroke-width:0.657094"
       d="m 1.704338,130.93014 c 0.518681,-1.29219 15.527507,-26.62822 28.798497,-48.614 l 8.069325,-13.36829 1.359759,2.12989 c 5.287759,8.28264 34.784731,58.02819 34.784731,58.66316 0,1.23695 -5.65649,1.50933 -40.951021,1.97204 -31.694867,0.4155 -32.534051,0.39501 -32.061291,-0.7828 z m 56.035722,-10.2992 c 4.32074,-0.32127 5.5468,-0.62783 5.5468,-1.38688 0,-3.11443 -22.964936,-39.93559 -24.90737,-39.93559 -0.888686,0 -3.659305,4.12701 -14.227215,21.1924 -9.57067,15.45501 -11.963298,19.49438 -11.963298,20.19722 0,0.49304 38.786023,0.43586 45.551083,-0.0671 z"
       id="path611" />
    <path
       style="fill:#004aad;fill-opacity:1;stroke:none;stroke-width:0.657094"
       d="m 224.64858,49.76756 v -30.8253 h 18.48936 18.48937 v 3.22686 c 0,2.87294 -0.18917,3.29557 -1.72462,3.85316 -0.94854,0.34448 -7.13993,0.62631 -13.75863,0.62631 h -12.03402 l 0.35435,10.75675 c 0.19491,5.9162 0.48461,11.37776 0.64376,12.13678 0.2724,1.29902 0.79287,1.40363 8.86598,1.78205 4.71712,0.2211 9.7868,0.61154 11.26594,0.86763 2.55095,0.44167 2.70054,0.59652 2.90646,3.00879 0.3374,3.95259 -0.43508,4.19989 -13.12006,4.19989 h -10.96513 v 10.59619 10.59619 h -4.70637 -4.70639 z"
       id="path650" />
    <path
       style="fill:#004aad;fill-opacity:1;stroke:none;stroke-width:0.657094"
       d="m 268.06691,80.03159 c -0.70006,-1.08193 8.62348,-21.30227 24.0225,-52.09861 5.89858,-11.79651 4.59531,-12.24315 13.11732,4.49536 11.06565,21.73452 21.6376,44.68296 21.6376,46.96847 0,1.02859 -0.54384,1.19605 -3.88444,1.19605 -2.29486,0 -4.45076,-0.37888 -5.26832,-0.92585 -0.76113,-0.50921 -2.40377,-2.9656 -3.65029,-5.45864 l -2.26639,-4.53279 h -13.85028 -13.85029 l -2.31499,4.57124 c -1.27325,2.5142 -2.91179,4.97059 -3.64119,5.45865 -1.46873,0.98276 -9.45862,1.242 -10.05123,0.32612 z m 40.12254,-18.43941 c 0.21711,-0.20738 -1.19819,-4.03645 -3.14513,-8.50907 -4.52052,-10.38474 -5.9203,-13.12071 -6.86162,-13.41151 -0.41773,-0.12905 -1.51094,1.00604 -2.42937,2.52244 -2.60613,4.30297 -7.32732,14.6988 -7.71702,16.99251 l -0.35198,2.07173 3.94809,0.23406 c 7.22055,0.42805 16.15699,0.48194 16.55703,0.0998 z"
       id="path689" />
    <path
       style="fill:#004aad;fill-opacity:1;stroke:none;stroke-width:0.657094"
       d="m 348.96898,81.16952 c -6.01268,-0.47875 -11.40372,-2.05214 -13.07485,-3.81592 -1.04474,-1.10267 -1.0918,-1.58369 -0.37759,-3.86059 0.44871,-1.43052 1.25058,-2.7603 1.78195,-2.95507 0.53135,-0.19474 4.12936,0.25401 7.99559,0.99724 3.86621,0.74325 8.41871,1.35136 10.11665,1.35136 5.37886,0 11.1017,-3.87328 11.1017,-7.51372 0,-2.34824 -5.98973,-7.6284 -13.8938,-12.24786 -12.38952,-7.24094 -17.03386,-12.52495 -17.03386,-19.37995 0,-5.06546 1.28769,-8.35176 4.46251,-11.3887 3.6702,-3.51078 7.83313,-4.69843 16.46899,-4.69843 7.82131,0 13.0022,0.94468 14.84755,2.70729 1.09808,1.04883 1.26543,1.78005 0.90317,3.94596 -0.24456,1.46221 -0.71579,2.91786 -1.04717,3.23481 -0.35565,0.34015 -2.88955,0.14254 -6.18474,-0.48216 -11.51624,-2.18346 -17.47163,-0.97306 -18.39715,3.73914 -0.91163,4.64154 1.22666,7.10751 11.47025,13.22803 16.15498,9.65258 18.8551,12.55437 18.78312,20.18597 -0.0468,4.96606 -1.48848,8.82644 -4.61604,12.36069 -3.23498,3.65562 -12.39623,5.46062 -23.30628,4.59191 z"
       id="path728" />
    <path
       style="fill:#004aad;fill-opacity:1;stroke:none;stroke-width:0.657094"
       d="M 400.12946,53.92953 V 26.64859 h -6.43144 c -8.24293,0 -9.03241,-0.39488 -9.03241,-4.51795 v -3.18838 h 21.17874 21.17873 v 3.18838 c 0,4.11542 -0.79514,4.51795 -8.92438,4.51795 h -6.3234 l -0.44421,17.44356 c -0.2443,9.59398 -0.44419,21.57384 -0.44419,26.62195 v 9.17837 l -2.1851,0.31563 c -1.20181,0.17359 -3.62223,0.47013 -5.37873,0.659 l -3.19361,0.34339 z"
       id="path767" />
  </g>
</svg>
