<?xml version="1.0" encoding="UTF-8" standalone="no"?>
<!-- Created with Inkscape (http://www.inkscape.org/) -->

<svg
   version="1.1"
   id="svg9"
   width="500"
   height="500"
   viewBox="0 0 500 500"
   sodipodi:docname="logo_wfast.svg"
   inkscape:version="1.1.1 (3bf5ae0d25, 2021-09-20)"
   xmlns:inkscape="http://www.inkscape.org/namespaces/inkscape"
   xmlns:sodipodi="http://sodipodi.sourceforge.net/DTD/sodipodi-0.dtd"
   xmlns="http://www.w3.org/2000/svg"
   xmlns:svg="http://www.w3.org/2000/svg">
  <defs
     id="defs13" />
  <sodipodi:namedview
     id="namedview11"
     pagecolor="#ffffff"
     bordercolor="#666666"
     borderopacity="1.0"
     inkscape:pageshadow="2"
     inkscape:pageopacity="0.0"
     inkscape:pagecheckerboard="0"
     showgrid="false"
     inkscape:zoom="2"
     inkscape:cx="225"
     inkscape:cy="230.25"
     inkscape:window-width="1920"
     inkscape:window-height="1017"
     inkscape:window-x="-8"
     inkscape:window-y="-8"
     inkscape:window-maximized="1"
     inkscape:current-layer="g15" />
  <g
     inkscape:groupmode="layer"
     inkscape:label="Image"
     id="g15">
    <g
       id="g1158"
       transform="translate(-90.840231,-140.9242)"
       style="fill:#0062ff;fill-opacity:1">
      <path
         id="path1164"
         style="fill:#0062ff;fill-opacity:1"
         transform="translate(90.840231,140.9242)"
         d="m 198.88086,177.73438 0.0508,0.002 v -0.002 z m 12.11328,0.21874 c -0.0938,0.0439 -0.21608,0.0675 -0.36719,0.0586 -0.0479,-0.003 -0.0951,-0.005 -0.14257,0.006 -0.0271,0.003 -0.15601,0.0195 -0.1875,0.0215 -0.0444,0.003 -0.0884,0.006 -0.13282,0.008 7.07504,0.20346 12.77933,0.39558 13.99024,0.50195 0.002,-0.003 0.005,-0.005 0.008,-0.008 0.009,-0.0108 0.0203,-0.0222 0.0312,-0.0312 0.014,-0.0409 0.0642,-0.11574 0.084,-0.14454 0.011,-0.0161 0.0241,-0.0309 0.0352,-0.0469 0.003,-0.004 -0.007,0.007 -0.01,0.01 0.0152,-0.0251 0.0308,-0.0516 0.0469,-0.0762 0.0217,-0.0332 0.03,-0.0454 0.0352,-0.0527 0.003,-0.005 0.004,-0.003 0.0117,-0.0156 0.0163,-0.0269 0.0245,-0.0284 0.01,-0.0234 -1.2e-4,-10e-4 0.002,-0.004 0.002,-0.006 h -0.0293 -0.125 -0.11133 -0.17969 -0.16992 -0.17969 c -0.0623,0 -0.1252,-2e-5 -0.1875,0 -0.0762,2e-5 -0.15231,0 -0.22851,0 -0.0838,8e-5 -0.1662,0.001 -0.25,0 -0.0261,-2.9e-4 -0.0557,-0.001 -0.082,0 -0.0566,0.002 -0.11312,0.009 -0.16992,0.004 -0.0428,-0.006 -0.0841,-0.0116 -0.12695,-0.0176 0.006,0 0.0323,0.001 0.0293,-0.002 -0.006,-0.006 -0.0164,-9e-5 -0.0254,0 -0.0465,0.001 -0.0354,-2e-4 -0.084,0.002 -0.0473,0.001 -0.0807,0.004 -0.12695,0 -0.0279,-0.003 -0.0563,-0.006 -0.084,-0.01 -0.003,-0.001 -0.0102,-0.003 -0.008,-0.004 0.009,-0.003 0.0363,-0.003 0.0273,-0.004 -0.0131,-0.001 -0.0278,8.5e-4 -0.041,0.002 -0.0805,0.003 -0.15573,0.001 -0.23633,-0.008 -0.008,-0.001 -0.0154,-0.002 -0.0234,-0.004 -2.1e-4,-0.001 10e-4,-0.004 0,-0.004 -0.009,-8.8e-4 -0.0203,-5e-5 -0.0293,0 -0.0381,-4e-5 -0.0771,0.001 -0.11524,-0.002 -0.001,-1.1e-4 -0.003,1.3e-4 -0.004,0 -0.005,6.9e-4 -0.009,0.002 -0.0137,0.002 -0.0795,0.009 -0.16257,0.002 -0.24023,-0.0176 -0.0136,-1.4e-4 -0.027,7.8e-4 -0.0352,0.002 -0.0533,-1e-5 -0.10685,-3.1e-4 -0.16015,0 -0.0577,9.5e-4 -0.11619,0.001 -0.17383,-0.002 l 0.002,0.002 c -0.003,-1e-5 -0.01,0.002 -0.0195,0 -0.003,-0.001 0.005,-0.003 0.008,-0.004 -0.0395,0.003 -0.0796,0.007 -0.11914,0.01 -0.0361,-0.002 -0.0701,-0.0125 -0.10547,-0.0195 -0.0117,-0.003 -0.0239,-0.006 -0.0351,-0.01 -0.0205,-0.007 -0.0106,-0.004 -0.0215,-0.008 -0.0128,3.3e-4 -0.0263,8.5e-4 -0.0391,0.002 -0.0364,6.1e-4 -0.10292,0.005 -0.14062,0 -0.0317,-0.004 -0.0643,-0.01 -0.0957,-0.0156 -0.09,0.004 -0.17714,-9.7e-4 -0.26562,-0.0254 -0.0227,-0.014 0.001,-6.4e-4 -0.0645,-0.004 -0.0312,-0.002 -0.0626,-0.007 -0.0937,-0.01 -0.0255,-0.003 -0.0507,-0.009 -0.0762,-0.0117 -0.0227,0.002 -0.0455,0.006 -0.0684,0.008 -0.0364,0.002 -0.0729,-7e-4 -0.10937,0 -0.0436,10e-4 -0.0873,0.005 -0.13086,0.006 -0.24794,0.009 -0.49607,0.007 -0.74414,0.006 -0.0622,-2.7e-4 -0.1253,-0.003 -0.1875,-0.002 -0.0702,0.001 -0.13879,0.006 -0.20899,0.008 -0.2095,0.02 -0.42101,0.01 -0.63086,0.008 -0.0208,-1e-5 -0.0417,-5e-5 -0.0625,0 -0.0625,1.5e-4 -0.125,0.002 -0.1875,0 -0.14304,-0.005 -0.28497,-0.0173 -0.42773,-0.0273 -0.14514,-0.008 -0.29022,-0.0194 -0.43555,-0.0234 -0.0996,-0.002 -0.19922,0.002 -0.29882,0.004 -0.1594,0.003 -0.31909,9e-5 -0.47852,0 -0.22235,4.9e-4 -0.44562,4e-5 -0.66797,0 -0.17159,-5e-5 -0.34208,0 -0.51367,0 -0.0308,-5e-5 -0.0611,-10e-4 -0.0918,0 -0.48272,0.0155 0.14637,2e-4 -0.22851,0.0156 -0.17636,0.007 -0.35288,0.004 -0.5293,0.002 -0.17733,-0.003 -0.35389,-0.003 -0.53125,-0.002 -0.0359,1.3e-4 -0.0716,0.004 -0.10742,0.002 -0.0674,-0.004 -0.13387,-0.0116 -0.20117,-0.0176 -0.0426,-0.006 -0.086,-0.0136 -0.12891,-0.0176 -0.0964,-0.009 -0.0969,-0.003 -0.17969,-0.004 -0.10928,-0.002 -0.21884,-0.008 -0.32812,-0.01 -0.22804,0.001 -0.45555,0.002 -0.6836,0.002 -0.19472,-6.6e-4 -0.38927,-0.002 -0.58398,-0.002 -0.13917,0 -0.27857,0 -0.41797,0 z m 213.62109,14.93165 -0.004,0.002 -0.004,0.004 -0.006,0.002 -0.006,0.002 -0.006,0.004 -0.006,0.004 -0.006,0.004 -0.0117,0.004 -0.0117,0.006 -0.0117,0.0117 -0.004,0.008 -0.0117,0.0117 -0.0117,0.0117 -0.0117,0.0117 c -0.0109,0 -0.0208,0.004 -0.0312,0.004 0.005,5e-4 0.009,0.006 0.0137,0.006 0.004,-0.001 0.007,4.2e-4 0.008,0 10e-4,-5.2e-4 0.006,-0.003 0.008,-0.006 0.002,-4.3e-4 0.005,-8e-5 0.008,-0.004 v 0.0117 l -0.004,0.01 V 193 c -0.007,-3e-5 -0.0127,0.002 -0.0195,0.002 0.006,-2e-5 0.0135,-1e-5 0.0195,0 0.003,0 0.009,-2e-5 0.0117,0 0.01,3e-5 0.017,-1e-5 0.0273,0 0.007,0 0.0164,0.002 0.0234,0.002 0.002,-7e-5 0.009,-0.002 0.0117,-0.002 0.002,-0.003 0.006,-0.0117 0.0117,-0.0117 h 0.0254 0.0117 c 0.004,0 0.008,1e-5 0.0117,0 0.004,-3e-5 0.008,0.002 0.0117,0.002 9.9e-4,3e-5 0.003,4e-5 0.004,0 0.003,-0.0102 0.009,-0.0204 0.0117,-0.0215 0.002,-8.1e-4 0.0107,0.003 0.0117,0.0156 4.2e-4,-3e-5 0.008,0.01 0.0117,0.01 0.003,1.1e-4 0.0135,-4e-4 0.0117,0 10e-4,-3.8e-4 0.003,-0.01 0.004,-0.01 h 0.002 c 0.006,-0.004 0.0118,-0.0117 0.0195,-0.0117 h 0.0273 c 0.003,2.1e-4 0.009,-5.8e-4 0.0117,0 0.006,-0.002 0.0117,-0.003 0.0176,-0.004 0.0292,-0.006 0.0715,-0.01 0.0996,-0.0117 0.009,-6.5e-4 0.0164,5e-5 0.0254,0 0.0125,-4e-5 0.0245,5e-4 0.0371,0 0.009,0 0.0178,-0.01 0.0273,-0.0117 -0.12125,-0.0105 -0.22921,-0.0289 -0.36914,-0.0293 z m -0.14453,0.0762 c -0.20157,0.003 -0.3826,0.0332 -0.58789,0.0391 h 0.0215 c 0.005,-0.002 0.009,-0.002 0.0117,0 h 0.01 c 0.009,0 0.0203,2e-5 0.0293,0 0.008,-1.1e-4 0.0137,-5e-5 0.0215,0 0.007,-0.002 0.0128,-0.002 0.0195,-0.002 h 0.0176 0.008 0.0117 0.0352 0.0312 0.0371 c 0.0131,0 0.0261,1e-5 0.0391,0 0.009,0 0.02,1e-5 0.0293,0 0.003,-0.008 0.0128,-0.0148 0.0293,-0.0117 0.003,5.4e-4 0.004,-0.001 0.008,0.002 0.002,0 0.006,0.001 0.008,-0.002 0.008,-0.003 0.0154,-0.004 0.0234,-0.004 h 0.0156 c 0.008,0 0.0154,-1e-5 0.0234,0 0.006,0 0.0135,1e-5 0.0195,0 0.007,0 0.0145,-1.7e-4 0.0215,0 0.007,-10e-4 0.0122,-0.001 0.0195,0.002 0.006,-0.004 0.0136,-0.009 0.0215,-0.008 0.009,0.002 0.0144,-0.003 0.0234,-0.004 0.004,0 0.01,-0.002 0.0137,-0.002 0.002,-8.3e-4 0.007,0.001 0.0117,-0.002 5e-4,0 0.004,-1.4e-4 0.006,0 0.007,-0.002 0.0107,-0.006 0.0117,-0.006 0.002,-5e-5 0.006,-0.001 0.01,-0.002 z m -0.65625,0.0371 c -0.001,0.001 -0.003,-0.001 -0.004,0.002 -10e-4,0 -0.003,0.002 -0.004,0.002 0.002,-6e-5 0.004,6e-5 0.006,0 z m -0.002,0.004 c 0.002,-6e-5 0.004,6e-5 0.006,0 l 0.002,-0.004 c -0.002,0.001 -0.005,0.003 -0.008,0.004 z m 0.006,0 c 0.003,-8e-5 0.005,8e-5 0.008,0 l 0.002,-0.004 c -0.003,8.9e-4 -0.006,0.002 -0.01,0.004 z m -0.0117,0 c -0.005,1.6e-4 -0.0101,0.002 -0.0156,0.002 0.004,1.6e-4 0.007,0.002 0.0117,0.002 z m 0.0332,-0.002 c -0.004,1.2e-4 -0.008,0.002 -0.0117,0.002 v 0.006 c 0.003,-7.5e-4 0.01,-0.007 0.0117,-0.008 z m 0.0117,0 c -0.003,0.001 -0.007,0.01 -0.01,0.0117 L 423.85938,193 c -0.003,8e-5 -0.005,-8e-5 -0.008,0 z m -0.0781,0.004 c -0.0957,0.003 -0.17749,0.0146 -0.27344,0.0176 -0.002,0.001 -0.006,0.009 -0.0117,0.0117 0.009,0 0.0164,-1e-5 0.0254,0 0.0118,0 0.0234,1e-5 0.0352,0 0.0102,0 0.0215,1.2e-4 0.0312,0 0.009,-5e-5 0.0179,-0.001 0.0273,0 0.0105,-0.003 0.0206,-0.009 0.0312,-0.008 -0.003,5e-5 0.004,3e-5 0.006,0 0.007,-1.5e-4 0.014,-4.4e-4 0.0215,0 0.007,-0.002 0.0155,-0.003 0.0195,-0.004 9.9e-4,-4e-4 0.01,3.9e-4 0.0117,0 0.002,-3e-4 0.008,2.9e-4 0.01,0 0.002,-3.2e-4 0.006,-0.002 0.008,-0.002 0.003,-4.1e-4 0.009,-0.002 0.0117,-0.002 0.0105,-0.003 0.018,-0.01 0.0293,-0.01 0.002,-6.4e-4 0.008,6.4e-4 0.01,0 0.003,-8.3e-4 0.006,-0.003 0.008,-0.004 z m -0.27344,0.0176 c -0.0788,0.002 -0.14616,0.0128 -0.22461,0.0156 0.0116,0 0.0238,3e-5 0.0352,0 0.0107,0 0.0225,1.2e-4 0.0332,0 0.0154,-3e-5 0.0382,-0.002 0.0488,0 0.0138,-0.004 0.024,-0.004 0.0371,-0.004 0.009,2e-5 0.0164,-8.2e-4 0.0254,0 0.004,2.4e-4 0.008,-4.9e-4 0.0117,0 0.0128,-0.005 0.0291,-0.0112 0.0332,-0.0117 z m -0.22461,0.0156 0.002,-0.002 c -0.012,0 -0.0229,0.002 -0.0351,0.004 0.0116,-4.1e-4 0.0216,-0.002 0.0332,-0.002 z m -0.0332,0.002 c -0.0451,0.002 -0.0837,0.008 -0.12891,0.01 h 0.0215 0.0156 c 0.004,-6.5e-4 0.005,0.001 0.0117,-0.002 0.0122,0 0.0249,-5e-4 0.0371,0 0.0127,6.7e-4 0.001,-6.8e-4 0.0156,0 h 0.002 c 0.004,-9.5e-4 0.008,0.001 0.0117,-0.002 0.003,-7.7e-4 0.009,0.001 0.0117,-0.002 6.2e-4,-1.9e-4 -0.001,-0.002 0.002,-0.004 z m 1.14453,-0.0352 c -9.7e-4,7.9e-4 -0.003,-0.001 -0.004,0.002 -0.001,10e-4 -0.002,0.005 -0.002,0.008 h 0.002 c 0.002,-0.004 0.003,-0.008 0.004,-0.01 z m -0.625,0.043 -0.004,0.004 c 0.007,1.6e-4 0.0112,0.001 0.0137,-0.002 -10e-4,-4.5e-4 -0.005,0.001 -0.008,-0.002 z m -91.13086,0.14648 -0.002,0.002 0.0469,-0.002 z m -0.69336,0.0332 c -0.13816,0.008 -0.27604,0.0142 -0.41406,0.0215 l 0.46289,-0.0215 c -0.0163,0 -0.0326,-2e-5 -0.0488,0 z m -8.70508,0.0488 -0.18945,0.002 c 0.002,0.004 0.004,0.008 0.006,0.0117 0.0339,-0.002 0.0676,-0.004 0.10156,-0.006 0.003,-2.8e-4 0.007,2.7e-4 0.01,0 0.0209,-0.002 0.0416,-0.005 0.0625,-0.006 0.003,-4.2e-4 0.006,-0.002 0.01,-0.002 z m 5.70313,0.0606 c -0.10587,0.006 -0.2125,0.013 -0.31836,0.0195 0.0661,-0.002 0.12914,-0.004 0.20312,-0.006 0.0124,-6.1e-4 0.0816,-0.004 0.11524,-0.006 -4e-5,-0.003 -10e-6,-0.005 0,-0.008 z m -11.71485,5.52734 c -0.002,0.007 -0.006,0.0128 -0.008,0.0195 10e-6,0.004 -1e-5,0.008 0,0.0117 0.002,-0.0105 0.006,-0.0207 0.008,-0.0312 z m -0.1289,3.52539 c 7e-5,0.004 -0.002,0.008 -0.002,0.0117 0.007,0.002 0.0126,0.005 0.0195,0.006 2.4e-4,-0.005 -3.7e-4,-0.009 0,-0.0137 -0.005,-0.001 -0.0116,-0.003 -0.0176,-0.004 z m -0.002,0.0937 c -2.1e-4,0.002 2.4e-4,0.004 0,0.006 0.006,3.4e-4 0.0113,0 0.0156,0 l 0.002,-0.002 c -0.006,-0.001 -0.0116,-0.002 -0.0176,-0.004 z m 0.0156,0.0176 c -0.006,0.015 -0.01,0.0274 -0.0137,0.0371 2.8e-4,10e-4 -3.2e-4,0.003 0,0.004 0.004,-0.008 0.009,-0.0162 0.0137,-0.0234 -2.1e-4,-0.006 1.6e-4,-0.0117 0,-0.0176 z m 0.0976,0.92383 c -0.008,0.052 -0.01,0.10515 -0.01,0.1582 z m 102.22071,0.37695 c 4e-4,0.003 0.002,0.006 0.002,0.01 -3.9e-4,-0.003 -0.002,-0.006 -0.002,-0.01 z m -102.1875,11.0293 c -0.0276,-0.0335 -0.0521,0.0479 -0.0762,0.13281 0.0259,-0.0431 0.0522,-0.0858 0.0781,-0.12891 -2.7e-4,-3.3e-4 -0.002,-0.004 -0.002,-0.004 z m -0.0645,0.15039 c -0.01,0.005 -0.0194,0.009 -0.0293,0.0137 -0.005,0.0219 -0.009,0.0538 -0.0137,0.0801 0.013,-0.0299 0.0266,-0.0608 0.043,-0.0937 z m 0.2207,0.60351 c -0.0621,0.0164 -0.12569,0.0257 -0.18164,0.0195 0.0602,0.065 0.12748,0.11937 0.1875,0.0937 -0.004,-0.0319 -0.002,-0.0821 -0.006,-0.11329 z m -0.0937,2.91602 c -0.0164,-8.8e-4 -0.0764,0.0102 -0.10156,0.0117 -0.0124,0.0169 -0.0247,0.0339 -0.0371,0.0508 0.0482,-0.0153 0.096,-0.0317 0.13867,-0.0566 0.007,-0.004 0.005,-0.006 0,-0.006 z m 0.24219,0.67383 c -0.0104,0.0214 -0.0227,0.0439 -0.0371,0.0684 0.002,0.0771 0.002,0.1754 0.002,0.18164 -0.002,0.0825 -5e-5,0.16545 0,0.24805 -3.9e-4,0.0634 -1.2e-4,0.12615 0,0.18945 0.007,-0.24314 0.0327,-0.43896 0.0352,-0.6875 z m -0.34571,0.9082 c -0.0284,-0.001 -0.0492,0.002 -0.0332,0.0117 0.0842,0.0498 0.14252,0.0778 0.19141,0.0977 -0.0236,-0.0281 -0.0487,-0.0571 -0.0801,-0.0879 -0.0133,-0.0129 -0.0497,-0.0201 -0.0781,-0.0215 z m 0.0605,0.64258 c -0.004,5.8e-4 -0.0121,0.002 -0.0176,0.002 0.0185,0.0132 0.0373,0.0265 0.0586,0.043 -0.0137,-0.0149 -0.0273,-0.03 -0.041,-0.0449 z m -0.0371,1.56836 c -0.1582,0.006 -0.0578,0.11679 0.0781,0.24805 0.0166,-0.0655 0.0315,-0.13617 0.0488,-0.24219 -0.008,3.2e-4 -0.016,8.9e-4 -0.0234,0 -0.0424,-0.005 -0.0768,-0.007 -0.10352,-0.006 z m 18.32617,25.53515 c -0.0186,0 -0.0271,0.02 -0.0449,0.0215 0.0273,3.2e-4 0.0547,-3e-4 0.082,0 -0.013,-0.001 -0.024,-0.0215 -0.0371,-0.0215 z m 22.73438,1.72852 c -0.39318,0.0932 -0.78293,0.19829 -1.17969,0.2793 0.3849,-0.10235 0.77518,-0.19117 1.16992,-0.24414 0.003,-0.0114 0.008,-0.0244 0.01,-0.0352 z m -1.17969,0.2793 c -0.17028,0.0348 -0.3386,0.0756 -0.50977,0.10742 -0.16205,0.0301 -0.32636,0.047 -0.49023,0.0664 -0.10483,0.0692 -0.11146,0.11611 -0.17773,0.17773 0.1236,-1.4e-4 0.2428,0.001 0.38085,-0.002 0.002,-0.011 0.002,-0.0222 0.004,-0.0332 -0.048,0.009 -0.0943,0.0157 -0.13867,-0.002 -0.0571,-0.0226 0.0429,-0.033 0.14062,-0.0469 9.9e-4,-0.006 -0.001,-0.0118 0.002,-0.0176 0.0166,-0.095 0.18447,-0.0551 0.28125,-0.0645 h 0.002 c 0.16751,-0.0656 0.33227,-0.1394 0.50586,-0.18554 z m -72.20508,4.8789 c -0.13155,0.009 -0.2631,0.0163 -0.39453,0.0273 0.0572,0.0257 0.10985,0.0859 0.16992,0.0859 0.0794,0 0.15047,-0.0691 0.22461,-0.11328 z" />
      <path
         id="path1162"
         style="fill:#0062ff;fill-opacity:1"
         transform="translate(90.840231,140.9242)"
         d="m 409.94922,187.72656 c -6e-4,0.014 -0.003,0.0279 -0.004,0.041 h 0.002 c 2.5e-4,-0.0222 0.002,-0.0373 0.002,-0.041 z m 0.48047,0.01 -0.002,0.002 c 0.005,-2.1e-4 0.007,-0.002 0.0117,-0.002 -0.003,4e-5 -0.007,-1.4e-4 -0.01,0 z m -4.96485,0.0371 c -0.0137,0.002 -0.0278,0.004 -0.041,0.006 -0.0242,0.004 -0.0479,0.005 -0.0723,0.004 -0.006,-2e-4 -0.0135,-0.002 -0.0195,-0.002 -10e-4,-5e-5 -0.003,1.2e-4 -0.004,0 -0.008,0.001 -0.0157,0.003 -0.0234,0.004 -0.0104,0.001 -0.0271,2.7e-4 -0.0371,0 -0.0334,-9.4e-4 0.005,5e-4 -0.0312,0 -0.0223,-1e-5 -0.0461,-4e-5 -0.0684,0 -0.007,2e-5 -0.0125,-2.6e-4 -0.0195,0 -0.008,0.001 -0.0174,-0.001 -0.0254,0.002 -0.0576,0.006 -0.11612,0.002 -0.17383,0.002 -0.0453,1.4e-4 -0.0895,5e-5 -0.13477,0 -0.0294,0.001 -0.0586,0.001 -0.0879,-0.002 -0.0376,-0.003 -0.006,0.001 -0.0351,-0.002 -0.0268,9.2e-4 -0.0533,1.8e-4 -0.0801,0 -0.0371,-3.4e-4 -0.0742,-2e-5 -0.11133,0 -0.0499,-1e-5 -0.10059,0 -0.15039,0 -0.0367,-0.002 -0.073,0.002 -0.10938,-0.004 -0.0372,-0.006 -0.0142,-0.006 -0.0273,-0.006 -0.003,-8e-5 -0.005,1.2e-4 -0.008,0 h -0.002 c -9.9e-4,2.6e-4 -0.005,0.002 -0.006,0.002 -0.004,2.7e-4 -0.008,-4e-5 -0.0117,0 -0.0241,0.0194 -0.0613,0.0332 -0.11133,0.0332 h -0.0625 -0.0371 c -0.0171,8.1e-4 -0.0322,0.001 -0.0488,-0.004 -10e-4,-3.1e-4 -0.003,3.6e-4 -0.004,0 -0.005,3e-5 -0.009,0 -0.0137,0 -0.005,0 -0.0106,-10e-6 -0.0156,0 h -0.0254 -0.0176 -0.0254 -0.0156 c -0.0101,0.006 -0.008,-0.001 -0.0156,0.002 10e-4,-5e-4 0.003,9.5e-4 0.004,-0.002 h -0.0176 c 0.003,-0.003 0.007,-0.006 0.01,-0.01 -0.005,0 -0.0104,-5e-5 -0.0156,0 h -0.002 c -0.005,0.004 -0.01,0.009 -0.0156,0.0137 0.004,4.5e-4 0.009,0.002 0.0137,0.002 -0.0202,0.0192 -0.0394,0.0325 -0.043,0.0215 -0.0468,0.0345 -0.0905,0.0648 -0.0449,-0.01 -0.008,0.002 -0.0206,0.001 -0.0312,0 0.006,3e-5 -0.004,0 -0.008,0 0.002,0.0171 0.006,0.0337 0.01,0.0508 0.001,0.0103 0.004,0.0209 0.006,0.0312 3.3e-4,0.005 -6.4e-4,0.009 0.002,0.0137 0.002,0.0201 0.004,0.0408 0.008,0.0606 0.005,0.0404 0.006,0.0807 0,0.12109 -0.001,0.007 0.001,0.0145 -0.002,0.0215 -2.6e-4,0.002 0.001,0.006 -0.002,0.006 -0.002,-10e-4 -0.002,-0.008 -0.002,-0.006 0,0.005 0.002,0.0106 0.002,0.0156 10e-4,0.0264 0.001,0.0224 -0.002,0.043 -10e-4,0.006 -0.003,0.0117 -0.004,0.0176 v 0.002 0.004 0.0293 c 0,0.0123 -1e-5,0.0248 0,0.0371 2e-5,0.008 9e-5,0.0154 0,0.0234 -4e-5,0.0128 0.002,0.0244 0,0.0371 l -0.002,0.002 c -6.9e-4,0.006 -0.002,0.0109 -0.002,0.0156 -2.2e-4,0.003 -3.9e-4,0.006 0,0.008 h 0.002 c 10e-4,0.002 0.002,0.004 0.006,0 -4e-5,0.009 3.6e-4,0.0118 0,0.0176 v 0.002 0.002 0.002 l 0.002,0.002 v 0.002 c 4.2e-4,0.002 0.002,0.004 0.002,0.006 1.7e-4,0.001 3.2e-4,0.0125 0,0.0117 10e-4,0.008 0.003,0.0179 0.004,0.0273 v 0.002 c 0.009,0.026 0.0137,0.0538 0.004,0.0293 -5e-4,0.0117 3.7e-4,0.0107 0,0.0117 v 0.002 c 10e-4,0.007 0.002,0.0131 0.004,0.0195 3.6e-4,0.002 3e-5,0.01 0,0.0117 4.3e-4,0.002 -2.1e-4,0.004 0,0.006 0.002,0.0143 -0.002,0.027 -0.004,0.041 0,0.001 -1e-5,0.0107 0,0.0117 3e-5,0.0113 1.8e-4,0.0219 0,0.0332 -8e-5,0.002 -0.002,0.0107 -0.002,0.0117 v 0.002 c 9.9e-4,0.0117 0.0184,0.023 0,0.0351 -3e-5,0.001 2.5e-4,0.01 0,0.0117 l -0.002,-0.01 c -1.4e-4,0.007 -4e-5,0.009 0,0.0117 1.9e-4,0.0122 -0.002,0.0238 -0.002,0.0254 v 0.008 0.002 c 0.003,0.0128 0.004,0.0259 0.004,0.0391 -10e-6,0.0101 0,0.0219 0,0.0312 v 0.0293 c 2e-5,0.0159 5e-5,0.0329 0,0.0488 0,0.0111 3.6e-4,0.0222 0,0.0332 v 0.002 c 0.005,0.0141 0.011,0.0282 0.0117,0.0332 -10e-4,-0.002 -0.005,-0.005 -0.008,-0.0117 0.002,0.005 -7.5e-4,0.0105 0.002,0.0156 l -0.002,-0.002 c -10e-5,0.002 2.9e-4,0.01 0,0.0117 3.2e-4,-0.001 -7.5e-4,-0.006 0.002,-0.008 0.002,0.011 0.004,0.0219 0.004,0.0332 0,0.006 -1e-5,0.0135 0,0.0195 0,0.009 6e-5,0.0164 0,0.0254 -1e-5,0.008 5.2e-4,0.0199 0,0.0293 -4.3e-4,-0.006 -0.003,-0.0115 -0.004,-0.0176 -10e-4,-0.003 -0.004,-0.0135 -0.004,-0.0117 0.002,0.0181 0.006,0.0367 0.008,0.0547 -0.001,0.007 -0.002,0.0145 -0.004,0.0215 -10e-4,0.003 -0.003,0.009 -0.004,0.0117 v 0.002 c 1.9e-4,0.006 -0.002,0.013 -0.002,0.0195 h -0.002 c -1.4e-4,0.001 1.1e-4,0.008 0,0.01 2.7e-4,-0.001 -5.9e-4,-0.007 0.002,-0.008 2e-5,0.009 0.002,0.0201 -0.002,0.0293 v 0.0156 0.0117 0.0176 0.0117 0.0137 c 0,0.007 -9e-5,0.0145 0,0.0215 1e-5,7.1e-4 0,0.007 0,0.008 v 0.002 c 2e-4,0.001 -1.6e-4,0.0107 0,0.0117 1.3e-4,8.5e-4 -6e-5,0.006 0,0.004 0.001,0.0106 0.001,0.0206 -0.002,0.0332 0.48438,-0.89587 1.83597,-1.22639 5.79297,-1.43359 -0.0258,-0.004 -0.0289,-0.0117 -0.0293,-0.0117 h -0.002 c -10e-4,1.3e-4 -0.003,-1.2e-4 -0.004,0 -0.0132,7.8e-4 -0.0324,4e-4 -0.0449,0 -0.008,7e-5 -0.0164,5e-5 -0.0254,0 h -0.0254 -0.0371 c -0.0122,9.1e-4 -0.0243,-0.009 -0.0371,-0.0117 -9.9e-4,2.3e-4 -0.002,0.0117 -0.004,0.0117 -0.0136,8.2e-4 -0.0274,-0.0117 -0.041,-0.0117 -0.0102,-1e-4 -0.0191,2e-5 -0.0293,0 -0.0141,-4e-5 -0.0289,0 -0.043,0 h -0.0488 -0.0449 -0.0215 -0.0293 -0.0371 -0.0234 -0.0332 c -0.007,1.4e-4 -0.0142,0 -0.0215,0 h -0.006 c -0.004,7.9e-4 -0.007,0.0107 -0.0176,0.0117 -0.0108,0.001 -0.0246,2.3e-4 -0.0352,0 -0.0226,-0.001 -0.0457,-1.2e-4 -0.0684,0 -0.0275,-2e-5 -0.0545,-1e-5 -0.082,0 h -0.008 c -0.005,0.001 -0.009,-0.001 -0.0137,0.002 -0.0143,0.001 -0.0288,-0.002 -0.043,-0.002 h -0.008 c -0.013,5.6e-4 -0.0261,0.002 -0.0391,0.002 -0.006,5.8e-4 -0.0131,-5.6e-4 -0.0195,0 h -0.002 c -0.007,0.001 -0.0145,0.0107 -0.0215,0.0117 -0.0126,0.001 -0.0245,0.001 -0.0371,-0.002 -0.006,-3.1e-4 -0.0135,0.002 -0.0195,0.002 -0.0167,3.3e-4 -0.0342,3e-5 -0.0508,0 -0.0142,2e-5 -0.0288,2e-5 -0.043,0 h -0.0684 -0.0742 -0.0547 -0.0449 c -0.003,0 -0.009,2.8e-4 -0.0117,0 -0.01,-0.001 -0.0193,-0.0107 -0.0293,-0.0117 -0.002,-7.8e-4 -0.009,0.001 -0.0117,-0.002 -0.004,2.2e-4 -0.008,-1.8e-4 -0.0117,0 -0.0201,8.4e-4 0.005,-0.001 -0.0176,0.002 -0.011,-1.3e-4 -0.0221,-5e-5 -0.0332,0 -0.0165,1e-4 -0.0323,0 -0.0488,0 h -0.0664 c -0.0163,-4e-5 -0.0325,-4e-5 -0.0488,0 h -0.041 c -0.0159,2e-5 -0.0309,0 -0.0469,0 h -0.0488 c -0.008,-4e-5 -0.0135,-4e-5 -0.0215,0 h -0.0547 c -0.0154,2e-5 -0.0334,0 -0.0488,0 -0.0158,8.3e-4 -0.0316,-0.008 -0.0469,-0.0117 -0.006,2.5e-4 -0.0141,0.0117 -0.0156,0.0117 -0.005,-2.2e-4 -0.009,-2e-5 -0.0137,0 -0.0157,0 -0.0312,-1e-5 -0.0469,0 -0.0146,0 -0.0262,-0.008 -0.041,-0.0117 -0.0125,6.8e-4 -0.0246,1.4e-4 -0.0371,0 -0.007,-1.3e-4 -0.0142,-1e-5 -0.0215,0 -0.0241,0.0204 -0.0617,0.0352 -0.11329,0.0352 h -0.12109 -0.0547 c -0.01,0 -0.0193,7.6e-4 -0.0293,0 -0.0188,-0.002 -0.038,-0.007 -0.0566,-0.01 -0.0285,-0.004 -0.0395,-0.0107 -0.043,-0.0117 -0.003,-5.9e-4 -0.007,-0.01 -0.0234,-0.0117 -0.007,-1e-5 -0.0125,-0.002 -0.0195,-0.002 -0.0144,-0.002 -0.0286,-0.002 -0.043,-0.004 -0.0193,-0.001 -0.0374,-0.006 -0.0566,-0.006 -0.0272,0.001 -0.0548,0.004 -0.082,0.004 -0.004,-3e-5 -0.01,2e-5 -0.0137,0 -0.014,-6e-5 -0.029,-3e-5 -0.043,0 -0.006,1e-5 -0.005,6e-5 -0.006,0 -0.0227,0.008 -0.0485,0.01 -0.0723,0.01 -0.009,-0.001 -0.0202,-0.003 -0.0293,-0.004 -0.006,-0.001 -0.0116,-0.005 -0.0176,-0.006 -0.003,-0.004 -0.01,0.002 -0.0117,0.002 -0.008,-0.001 -0.0174,0.001 -0.0254,-0.002 -0.023,-0.002 -0.007,-0.004 -0.0215,-0.004 -0.0211,8.5e-4 -0.0414,9e-5 -0.0625,0 -0.0183,-5e-5 -0.0164,-0.009 -0.041,-0.0117 -0.006,-0.001 -0.008,-0.005 -0.0137,-0.006 -0.005,-7e-5 -0.0194,-1.5e-4 -0.0234,0 -0.0377,0.001 -0.0755,0.002 -0.11328,0.002 -0.0256,0 -0.0506,2e-5 -0.0762,0 -0.002,-2e-5 -0.01,0 -0.0117,0 -0.0158,0 -0.0284,-0.006 -0.0449,-0.008 -0.005,-7.4e-4 -0.009,4.6e-4 -0.0117,-0.002 -0.0226,9.4e-4 -0.0476,0.002 -0.0703,0.002 -0.0241,-3.5e-4 -0.0481,-2e-5 -0.0723,0 h -0.0645 c -0.004,0 -0.008,2.3e-4 -0.0117,0 -0.01,0 -0.0215,9.5e-4 -0.0313,-0.002 -0.0187,-0.002 -0.0359,-0.009 -0.0547,-0.01 -0.006,-3.1e-4 -0.0223,-2e-4 -0.0293,0 -0.009,2.6e-4 -0.0183,0.002 -0.0273,0.002 -0.0244,0.003 -0.0483,-0.002 -0.0723,-0.004 -0.0198,-0.002 -0.004,6.7e-4 -0.0176,0 -0.009,-10e-4 -0.0182,-0.003 -0.0273,-0.004 -0.0351,-0.004 -0.0703,-0.008 -0.10547,-0.008 -0.0105,4.8e-4 -0.019,-9e-5 -0.0293,0 z m -1.65625,0.0332 c 0.005,-0.003 0.0108,-0.007 0.0156,-0.01 h -0.008 c -0.001,-5e-5 -0.003,-5e-5 -0.004,0 -0.005,0.003 -0.009,0.007 -0.0137,0.01 z m -0.0859,-0.01 c -0.003,0.003 -0.006,0.005 -0.01,0.008 0.005,-0.002 0.0103,-0.005 0.0156,-0.008 -0.002,4e-5 -0.004,-5e-5 -0.006,0 z m 0.0332,0 c -0.004,0.003 -0.009,0.007 -0.0137,0.01 0.003,5.5e-4 0.008,0.002 0.01,0.002 v 0.002 c 0.005,-0.004 0.0108,-0.009 0.0156,-0.0137 -0.004,0 -0.008,-5e-5 -0.0117,0 z m -0.0156,0.0117 c -10e-4,9.1e-4 -0.003,-5.6e-4 -0.004,0.002 0.004,3e-5 0.008,1.5e-4 0.0117,0 -0.003,-5e-4 -0.005,5.6e-4 -0.008,-0.002 z m -0.004,0.002 c -0.002,-2e-5 -0.004,0 -0.006,0 -6.9e-4,0.002 9.5e-4,0.004 -0.002,0.006 h 0.002 c 0.002,-10e-4 0.004,-0.004 0.006,-0.006 z m -0.008,0.006 c -0.0103,-1.9e-4 -0.0207,-0.002 -0.0293,-0.004 -0.003,0.002 -0.006,0.004 -0.01,0.006 h -0.002 -0.002 v 0.002 0.002 c 0.001,-6.8e-4 0.003,5.6e-4 0.004,-0.002 0.004,4.9e-4 0.008,0 0.0137,0 0.007,-1.6e-4 0.0153,0.002 0.0215,-0.002 0.001,-6.5e-4 0.003,9.5e-4 0.004,-0.002 z m -0.0371,-0.006 c -9e-4,0.001 5.6e-4,0.003 -0.002,0.004 0.002,-7e-4 0.004,9.5e-4 0.006,-0.002 -0.001,-2.5e-4 -0.003,-0.002 -0.004,-0.002 z m -0.0234,0.004 c 0.005,0.002 0.006,0.003 0.008,0.004 l 0.002,-0.002 c -0.003,-6.6e-4 -0.006,5.6e-4 -0.01,-0.002 z m -98.88867,0.002 c -0.1439,0.0455 -0.25372,0.0986 -0.24219,0.17968 0.13212,-0.046 0.19401,-0.0998 0.2793,-0.15039 -0.0113,-0.0101 -0.024,-0.0189 -0.0371,-0.0293 z m -0.42969,0.0332 c 0.01,0.0194 0.0601,0.0869 0.084,0.11133 0.0172,0.0176 0.0361,0.0348 0.0547,0.0508 0.006,-0.002 0.0133,-0.004 0.0195,-0.006 -0.0491,-0.0538 -0.0983,-0.10729 -0.15234,-0.15625 -0.008,-0.008 -0.009,-0.006 -0.006,0 z m -0.35547,0.041 c -0.009,-0.004 0.0164,0.0126 0.0254,0.0156 0.004,0.001 0.006,-2.5e-4 0.01,0.002 -0.0116,-0.006 -0.0235,-0.0118 -0.0352,-0.0176 z m -1.37305,0.10157 c -0.003,7.7e-4 -0.005,-5e-5 -0.008,0.002 -0.14412,0.0432 -0.29201,0.0826 -0.44531,0.0645 -0.017,-0.001 -0.0339,1e-4 -0.0508,-0.002 -10e-4,0 -0.005,5e-5 -0.004,-0.002 0.0119,-0.006 0.05,-0.0157 0.0371,-0.0137 -0.0979,0.0146 -0.19634,0.0499 -0.29687,0.0449 0.0238,-0.004 0.0243,-0.005 -0.0215,-0.002 -0.003,9.9e-4 -0.005,1.6e-4 -0.008,0.002 -0.0185,0.001 -0.0468,0.007 -0.0391,0.002 -0.0196,0.001 -0.0726,0.007 -0.10547,0.01 h -0.002 c -0.0225,0.007 -0.0457,0.0127 -0.0684,0.0195 h -0.002 c -0.0315,0.0148 -0.072,0.0319 -0.1289,0.0488 -0.0746,0.0222 -0.15168,0.0301 -0.22852,0.043 h -0.002 c -0.018,0.005 -0.027,0.006 -0.0273,0.004 -2.5e-4,-0.002 -0.006,-0.003 -0.0234,-0.004 -0.0745,0.0279 -0.14948,0.0595 -0.22852,0.0723 0.24966,0.011 0.42815,0.0469 0.70117,0.0469 0.89131,0 1.58451,-0.0773 2.1543,-0.18164 h 0.002 c 0.17844,-0.0327 0.39777,-0.0582 0.53906,-0.0976 -0.0513,-0.014 -0.10337,-0.0315 -0.15039,-0.0488 -0.0711,1e-5 -0.14175,3e-5 -0.21289,0 -0.15813,-4e-5 -0.31648,-2.5e-4 -0.47461,0 -0.15042,-1.4e-4 -0.30076,-0.002 -0.45117,0 -0.15069,0.002 -0.30477,0.008 -0.45508,-0.008 z m -0.83593,0.0957 c 0.009,-6e-4 0.0404,-0.004 0.0469,-0.004 0.0397,-0.0121 0.12689,-0.0377 0.0937,-0.0312 -0.0992,0.0202 -0.13172,0.0301 -0.14062,0.0352 z m -0.14649,0.0117 c -10e-4,7.9e-4 -0.002,0.003 -0.004,0.004 0.006,-0.001 0.0113,-0.002 0.0176,-0.004 -0.005,4.2e-4 -0.009,-4.6e-4 -0.0137,0 z m -0.0137,0.002 c -0.0506,0.005 -0.0534,0.004 -0.13086,0.0117 -0.0293,0.003 0.0606,0.004 0.0898,0 0.0103,-0.001 0.0212,-0.004 0.0332,-0.006 0.003,-0.002 0.005,-0.004 0.008,-0.006 z m -0.46094,0.10742 c -0.0425,0.002 -0.1176,0.008 -0.24804,0.0254 -0.033,0.004 0.006,0.007 0.0586,0.006 0.0111,-0.004 0.022,-0.008 0.0332,-0.0117 0.008,-0.002 -0.0108,0.004 -0.0234,0.01 0.0418,-0.001 0.0897,-0.002 0.11523,-0.006 0.0231,-0.004 0.0527,-0.0137 0.082,-0.0234 -0.006,4e-5 -0.008,-4.5e-4 -0.0176,0 z m 118.25977,15.59375 c 4e-4,0.003 0.002,0.008 0.002,0.0117 -3.9e-4,-0.003 -0.002,-0.008 -0.002,-0.0117 z m -91.93164,3.3125 c -0.002,0.005 -0.005,0.0101 -0.008,0.0156 0.003,-9.9e-4 0.007,0.001 0.01,-0.002 0.002,-0.005 0.003,-0.009 0.004,-0.0137 -0.002,-3.4e-4 -0.004,3.4e-4 -0.006,0 z m -3.70899,0.3711 c -0.013,0.002 -0.026,0.006 -0.0391,0.008 0.0188,-2e-5 0.0204,-0.004 0.0391,-0.004 -2e-5,-0.001 2e-5,-0.003 0,-0.004 z m 95.63672,4.51758 c -0.007,0.004 -0.0149,0.008 -0.0215,0.0117 0.005,8.6e-4 0.0104,0.003 0.0156,0.004 0.002,-0.004 0.004,-0.009 0.006,-0.0137 z m -26.16406,3.45703 -0.002,0.004 c 0.002,0.004 0.004,0.008 0.006,0.0117 -10e-4,-0.004 -0.002,-0.0118 -0.004,-0.0156 z m 0.0156,0.0586 v 0.004 c 0.002,0.004 0.005,0.01 0.008,0.0137 -0.002,-0.006 -0.006,-0.0116 -0.008,-0.0176 z m 0.0117,0.0293 -0.002,0.004 c 6.8e-4,0.001 7e-4,0.003 0.002,0.004 -1.7e-4,-0.003 4.2e-4,-0.005 0,-0.008 z m 0,0.008 -0.002,0.004 c 6.8e-4,0.001 7.5e-4,0.003 0.002,0.004 -1.2e-4,-0.003 1.7e-4,-0.005 0,-0.008 z m 0,0.008 -0.002,0.004 c 6.9e-4,10e-4 8e-4,0.003 0.002,0.004 -2e-4,-0.003 1.3e-4,-0.005 0,-0.008 z m 0,0.01 -0.002,0.002 0.004,0.01 c -6.7e-4,-0.003 -0.002,-0.009 -0.002,-0.0117 z m 0.006,0.0391 c 0.003,0.0121 0.006,0.0256 0.01,0.0371 v 0.002 c 0.003,0.0194 0.006,0.0246 0.008,0.0352 3e-5,-0.004 1.1e-4,-0.008 0,-0.0117 6.5e-4,0.003 3.5e-4,0.009 0.002,0.0117 6e-4,0.004 0.002,0.0131 0.002,0.0195 v 0.006 c 5e-4,0.002 0.002,0.01 0.002,0.0117 -3e-4,-0.002 3.5e-4,0.008 0.002,0.0117 2.9e-4,0.002 -3e-4,0.008 0,0.01 10e-4,0.008 0.0107,0.0137 0.0117,0.0215 v 0.004 c 0.009,0.0206 0.012,0.0314 0.0137,0.0625 8.6e-4,0.008 -0.009,0.0138 -0.01,0.0215 -1.5e-4,0.001 10e-5,0.005 0,0.006 -0.001,0.004 -0.004,0.0147 -0.002,0.0117 l 0.0117,-0.01 c 0.004,0.0144 0.008,0.0285 0.0117,0.043 -9.5e-4,0.0245 -0.01,0.0497 -0.01,0.0742 2e-5,0.001 -4e-5,0.003 0,0.004 0.001,0.005 0.0107,0.0104 0.0117,0.0156 0.002,0.0133 7.5e-4,0.0311 0,0.0449 -10e-4,0.014 -0.002,0.0188 -0.002,0.0391 -4e-5,0.0135 -2e-5,0.0275 0,0.041 3e-5,0.017 0,0.0338 0,0.0508 v 0.0703 0.0586 0.0762 c 0,0.002 2.7e-4,0.004 0,0.006 -0.001,0.0111 -0.01,0.0221 -0.0117,0.0332 2e-5,0.001 -4e-5,0.003 0,0.004 5.5e-4,0.0159 0.004,0.0329 0.002,0.0488 l -0.006,0.0391 h -0.002 v 0.002 0.002 0.002 h 0.002 c 2.5e-4,0.0144 1.9e-4,0.0287 0,0.043 -4e-5,0.004 6.3e-4,0.007 0,0.01 -0.004,0.0188 -0.008,0.0378 -0.0117,0.0566 -4e-5,0.0168 -0.003,0.0345 -0.008,0.0508 v 0.002 c -6e-4,0.002 -4.8e-4,0.004 -0.002,0.006 -6.1e-4,0.005 -3.5e-4,0.009 -0.002,0.0137 v 0.002 c -1.4e-4,0.001 1.2e-4,0.005 0,0.006 9e-5,0.001 0.002,0.009 0.002,0.01 -0.001,0.0159 -0.004,0.031 -0.006,0.0469 -0.01,0.03 -0.006,0.0258 -0.0137,0.0449 l -0.002,0.002 v 0.004 c -1.4e-4,0.003 5e-5,0.009 0,0.0117 -0.003,0.0247 -0.007,0.0421 -0.0137,0.0684 -10e-4,0.003 -0.003,0.009 -0.004,0.0117 -0.002,0.005 -0.004,0.009 -0.006,0.0137 -1.7e-4,0.004 2.5e-4,0.009 0,0.0137 -0.006,0.0214 -0.007,0.0274 -0.0156,0.0449 v 0.002 c -4.8e-4,0.003 -0.003,0.009 -0.004,0.0117 -0.005,0.0251 -0.0109,0.048 -0.0234,0.0703 -7.3e-4,0.001 -0.0107,0.002 -0.0117,0.004 -10e-4,0.002 -0.008,0.008 -0.01,0.01 v 0.002 c -1e-5,0.001 -4e-5,0.005 0,0.006 -3.7e-4,0.001 -0.002,0.009 -0.002,0.008 -0.004,0.0167 -0.007,0.0341 -0.0117,0.0508 10e-4,0.0167 0.001,0.0348 -0.004,0.0508 -6.1e-4,0.002 -3.2e-4,0.004 -0.002,0.006 1e-4,0.0114 -0.002,0.0232 -0.004,0.0352 -5.2e-4,0.003 -3.2e-4,0.007 -0.002,0.01 -10e-5,0.002 2.4e-4,0.006 0,0.008 -0.003,0.0193 -0.009,0.0374 -0.0137,0.0508 v 0.002 0.002 0.002 c -0.002,0.026 -0.003,0.0413 -0.0176,0.0664 -0.005,0.008 -0.01,0.0154 -0.0156,0.0234 l -0.002,0.002 c -0.004,0.0104 -0.01,0.0194 -0.0156,0.0332 -0.002,0.005 -0.004,0.0104 -0.006,0.0156 -0.008,0.0115 -0.0173,0.0217 -0.0254,0.0332 -10e-4,0.002 -0.002,0.005 -0.004,0.008 -0.002,0.003 -0.006,0.01 -0.008,0.0117 h -0.002 c -0.003,0.005 -0.008,0.0105 -0.0117,0.0156 -0.005,0.005 -0.0103,0.009 -0.0156,0.0137 -0.0336,0.035 -0.0371,0.0403 -0.0547,0.0508 0.0753,0.0947 0.16084,0.14193 0.26953,0.0332 0.33225,-0.3323 0.36638,-1.19604 0.0801,-1.91796 -0.0159,-0.0396 -0.0328,-0.0611 -0.0488,-0.084 z m 0.0449,0.31445 c 10e-4,0.005 0.003,0.0109 0.004,0.0156 1.8e-4,-0.002 4.6e-4,-0.005 0,-0.008 -0.001,-0.003 -0.005,-0.01 -0.004,-0.008 z m -0.0664,0.44336 c 0.005,0.0454 0.0434,0.0795 0.0664,0.11914 8.1e-4,-0.009 4.5e-4,-0.0238 -0.002,-0.0273 -0.019,-0.0325 -0.0684,-0.1293 -0.0644,-0.0918 z m -0.10156,0.81055 -0.002,0.002 c -0.002,10e-4 -0.002,0.009 0.0117,0.0352 -1.2e-4,-0.005 2.1e-4,-0.0104 0,-0.0156 -5e-5,-0.001 6e-5,-0.003 0,-0.004 0,-0.004 -0.006,-0.0145 -0.01,-0.0176 z m -48.28711,2.01367 -0.70899,0.0137 0.6836,0.0469 c 0.003,-0.006 0.008,-0.0169 0.0195,-0.0449 0.001,-0.003 0.003,-0.008 0.004,-0.01 5.3e-4,-10e-4 9.2e-4,-0.003 0.002,-0.004 z m 2.74609,0.25 c -0.006,0.001 -0.0117,0.003 -0.0176,0.004 l 0.0274,0.002 c -0.003,-0.002 -0.005,-0.004 -0.008,-0.006 z m 14.38867,0.3125 c 0.003,0.0118 0.007,0.0234 0.01,0.0352 0.003,0.01 0.005,0.0195 0.008,0.0293 10e-4,-0.018 7.5e-4,-0.0176 0,-0.0195 0.002,0.002 0.005,0.005 0.006,0.006 -0.002,-0.002 -0.004,-0.01 -0.006,-0.0117 l -0.002,-0.002 c -5.5e-4,-0.002 2.8e-4,-0.008 -0.002,-0.0117 v -0.002 c -6.7e-4,-0.003 6e-4,-0.005 -0.002,-0.01 8.8e-4,0.003 0.003,0.008 0.004,0.01 0.001,0.003 -6e-4,0.007 0.002,0.01 l 0.002,0.002 v 0.004 c 8.4e-4,0.002 0.003,0.009 0.004,0.0117 l 0.002,0.002 c 0.009,0.01 0.008,0.012 0.0117,0.0254 5.2e-4,-0.006 0.004,0.009 0.008,0.0195 9e-4,0.003 -4.6e-4,0.009 0.002,0.0117 l 0.004,0.01 c 8.9e-4,0.003 0.007,0.009 0.008,0.0117 6.2e-4,0.002 0.003,0.01 0.006,0.0117 l 0.002,0.002 c 10e-4,0.002 0.0107,0.01 0.0117,0.0117 0.001,0.002 0.0107,0.01 0.0117,0.0117 0.003,0.007 0.009,0.0145 0.0117,0.0215 9.9e-4,0.003 0.0107,0.009 0.0117,0.0117 9.9e-4,0.005 0.008,0.009 0.01,0.0117 0.006,0.009 0.0119,0.0153 0.0156,0.0254 0.002,0.005 0.01,0.0109 0.0117,0.0156 0.006,0.0135 0.0104,0.0248 0.0137,0.0391 0.004,0.006 0.008,0.0121 0.0117,0.0195 0.007,0.0158 0.009,0.0235 0.01,0.0293 0.002,0.003 0.01,0.008 0.0117,0.0117 0.004,0.008 0.008,0.0134 0.0117,0.0215 7e-4,9.2e-4 0.002,0.0107 0.004,0.0117 l 0.002,0.0117 c 0.002,0.002 0.007,0.009 0.008,0.0117 0.004,0.008 0.006,0.0153 0.01,0.0234 l 0.002,0.002 c 0.002,0.004 0.004,0.007 0.006,0.0117 0.003,0.006 0.009,0.0139 0.0117,0.0215 0.004,0.006 0.009,0.0134 0.0117,0.0195 0.007,0.0153 0.01,0.0242 0.0117,0.0293 7e-4,0.001 0.003,0.007 0.004,0.008 0.007,0.0135 0.0108,0.0283 0.0137,0.043 0.007,0.0133 0.0123,0.0269 0.0176,0.041 0.007,0.014 -3.4e-4,6.3e-4 0.0117,0.0215 0.0163,0.0266 0.032,0.0542 0.041,0.084 0.007,0.02 0.0145,0.04 0.0195,0.0605 4.3e-4,0.002 -3.4e-4,0.003 0,0.004 l 0.002,0.002 c 3.2e-4,0.001 -2.6e-4,0.003 0,0.004 l 0.002,0.002 0.002,0.002 v 0.004 l 0.002,0.002 0.006,0.004 c 10e-4,0.002 0.003,0.002 0.004,0.004 0.0179,0.022 0.0157,0.0163 0.0215,0.0293 9.4e-4,9.4e-4 -5e-4,0.005 0.002,0.006 0.008,0.008 0.0117,0.0136 0.0117,0.0156 v 0.002 c -8.4e-4,0.002 1.7e-4,0.006 0,0.0117 0.003,0.003 0.007,0.008 0.0117,0.0137 -9.9e-4,-0.004 -0.002,-0.008 -0.004,-0.0117 0.006,0.007 0.0123,0.0127 0.0156,0.0234 v 0.004 c 10e-4,0.002 0.002,0.002 0.004,0.004 0.004,0.005 0.01,0.015 0.0117,0.0254 v 0.002 0.002 c 9.9e-4,0.003 0.009,0.009 0.01,0.0117 2.7e-4,0.002 -1.9e-4,0.01 0,0.0117 v 0.002 c 0.002,0.006 0.0107,0.0103 0.0117,0.0137 0.009,0.002 0.0682,0.0107 0.0703,0.0117 0.16997,0.10391 0.0313,-0.26248 -0.3086,-0.8125 -0.017,-0.0275 -0.11654,-0.0487 -0.16015,-0.0742 z m 0.0684,0.16016 c 7e-4,0.009 -6e-4,0.0163 0.002,0.0254 -2.5e-4,-0.011 2.5e-4,-0.0168 0,-0.0215 v -0.004 z m 24.59961,6.16406 c 0.002,0.003 0.004,0.006 0.006,0.01 0.005,0.001 0.0104,0.005 0.0156,0.006 -0.0164,-0.0163 -0.008,-0.0126 -0.0215,-0.0156 z m 1.85547,0.12109 c 1.4e-4,0.003 -1.4e-4,0.008 0,0.0117 0.007,-1.1e-4 0.0131,2.2e-4 0.0195,0 -0.009,-0.003 -0.0145,-0.009 -0.0195,-0.0117 z m -3.06641,0.16797 c -4.4e-4,0.0124 -0.002,0.0259 -0.002,0.0371 0.003,0.009 0.002,0.0201 0.004,0.0293 0.002,-0.0194 0.002,-0.0409 0.004,-0.0625 -0.002,-4.8e-4 -0.004,-0.004 -0.006,-0.004 z m -126.33398,20.92383 c -0.10331,-0.0385 -0.17964,0.1799 -0.23438,0.52539 0.15264,-0.045 0.30398,-0.0953 0.45704,-0.13867 -0.0108,-0.0309 -0.0154,-0.0702 -0.0274,-0.0996 -0.0693,-0.17187 -0.13502,-0.26465 -0.19531,-0.28711 z m -6.1875,6.83985 c -0.16278,0.0618 -0.3282,0.11495 -0.49219,0.17382 0.0688,0.0388 0.15703,0.0979 0.21875,0.13086 0.0405,-0.0129 0.0806,-0.0288 0.1211,-0.041 0.0316,-0.0816 0.0935,-0.17523 0.15234,-0.26367 z m 69.94336,0.55664 c 0.17634,0.12507 0.30103,0.12319 0.36328,0 -0.12122,0.003 -0.24251,0.01 -0.36328,0 z m -33.92774,0.0273 c 0.0101,0.0126 0.0234,0.0152 0.0352,0.002 -0.0117,-2.4e-4 -0.0234,-0.002 -0.0352,-0.002 z" />
      <path
         id="path1160"
         style="fill:#0062ff;fill-opacity:1"
         transform="translate(90.840231,140.9242)"
         d="m 217.06445,177.98633 c -0.6233,-0.003 -1.63645,0.012 -2.32422,0.0117 -0.0197,0.001 -0.0143,8e-5 -0.0547,0.002 -0.17636,0.007 -0.35288,0.004 -0.5293,0.002 -0.0587,-9.9e-4 -0.11722,3.7e-4 -0.17578,0 -1.06841,6.4e-4 -2.40393,0.0154 -3.51172,0.0176 -0.0391,0.005 -0.14301,0.0177 -0.17187,0.0195 -0.19565,0.015 -0.39192,0.007 -0.5879,0.01 -0.28394,10e-4 -0.56767,1.4e-4 -0.85156,-0.006 -0.0622,1.1e-4 -0.1253,-0.001 -0.1875,0 -0.0444,0.001 -0.0885,0.006 -0.13281,0.008 -0.185,0.009 -0.36986,0.0153 -0.55469,0.0273 -0.27648,0.0178 -0.55291,0.0449 -0.83008,0.0469 -0.0315,0.001 -0.0643,-0.003 -0.0957,-0.004 -0.0971,-0.003 -0.19401,-0.007 -0.29102,0.002 -0.0418,0.004 -0.0832,0.0116 -0.125,0.0156 -0.18759,0.0169 -0.15738,0.0147 -0.30468,0.0117 -0.0501,3e-4 -0.10039,-0.002 -0.15039,0 -0.038,0.001 -0.0772,0.005 -0.11524,0.008 -0.19272,0.013 -0.38488,0.0293 -0.57812,0.0293 -0.1906,0.001 -0.38168,5e-5 -0.57227,-0.002 -0.0688,0 -0.13823,0.008 -0.20703,0.008 -0.0375,0 -0.0738,-0.002 -0.11133,-0.004 -0.0386,-0.002 -0.0767,-0.005 -0.11523,-0.008 -0.12414,-0.008 -0.2487,-0.0165 -0.37305,-0.0215 -0.2294,-0.009 0.12518,0.009 -0.20117,-0.008 -0.0207,-0.001 -0.0418,-0.002 -0.0625,-0.004 -0.0411,-0.001 -0.082,-0.004 -0.12305,-0.004 -0.0475,0 -0.0951,0.003 -0.14258,0.004 -0.14298,0.002 -0.24806,0.002 -0.38671,-0.01 -0.22462,-0.0183 -0.16795,-0.009 -0.30469,-0.0391 v 0.002 c -0.0395,-0.009 -0.0749,-0.0194 -0.10938,-0.0312 -0.0225,0.001 -0.0405,0.006 -0.0644,0.006 -0.17959,-0.004 -0.3595,0.005 -0.53906,0 -0.0668,-0.002 -0.1816,-0.005 -0.29688,-0.01 l -20.98437,0.26171 10.13867,17.5 c 5.57613,9.625 10.52036,18.09232 10.98633,18.81641 0.46597,0.72409 0.96929,1.17409 1.11914,1 1.26402,-1.46856 18.94239,-32.66056 20.83984,-36.68555 3.2e-4,-0.002 0.002,-0.004 0.002,-0.006 0.003,-0.0206 0.007,-0.041 0.0117,-0.0625 0.0316,-0.13837 0.0722,-0.24046 0.16602,-0.3496 0.009,-0.0108 0.0203,-0.0222 0.0312,-0.0312 0.003,-0.0102 0.009,-0.0219 0.0156,-0.0352 0.002,-0.004 0.006,-0.008 0.008,-0.0117 0.0129,-0.0398 0.14122,-0.28065 0.13476,-0.28711 -0.0109,-0.0109 -0.51857,-0.0117 -0.58789,-0.0215 h -0.15039 c -0.0623,0 -0.1252,-2e-5 -0.1875,0 -0.0762,2e-5 -0.15231,0 -0.22851,0 -0.0838,8e-5 -0.1662,0.001 -0.25,0 -0.0261,-2.9e-4 -0.0557,-0.001 -0.082,0 -0.0566,0.002 -0.11312,0.009 -0.16992,0.004 -0.0428,-0.006 -0.0841,-0.0116 -0.12695,-0.0176 0.006,0 0.0323,0.001 0.0293,-0.002 -0.006,-0.006 -0.0164,-9e-5 -0.0254,0 -0.0465,0.001 -0.0354,-1.8e-4 -0.084,0.002 -0.0473,0.001 -0.0807,0.004 -0.12695,0 -0.0279,-0.003 -0.0563,-0.006 -0.084,-0.01 -0.003,-0.001 -0.0102,-0.003 -0.008,-0.004 0.009,-0.003 0.0363,-0.003 0.0273,-0.004 -0.0131,-0.001 -0.0278,8.5e-4 -0.041,0.002 -0.0805,0.003 -0.15573,0.001 -0.23633,-0.008 -0.008,-0.001 -0.0154,-0.002 -0.0234,-0.004 -2.1e-4,-0.001 10e-4,-0.006 0,-0.006 -0.009,-8.8e-4 -0.0203,-5e-5 -0.0293,0 -0.0381,-3e-5 -0.0771,0.001 -0.11524,-0.002 -0.001,-1.1e-4 -0.003,1.3e-4 -0.004,0 -0.005,6.9e-4 -0.009,0.002 -0.0137,0.002 -0.0795,0.009 -0.16257,0.002 -0.24023,-0.0176 -0.0136,-1.4e-4 -0.027,0.003 -0.0352,0.004 -0.0533,-1e-5 -0.10685,-3.1e-4 -0.16015,0 -0.0577,9.5e-4 -0.11619,-9.1e-4 -0.17383,-0.004 l 0.002,0.004 c -0.003,-1e-5 -0.01,0.002 -0.0195,0 -0.003,-0.001 0.005,-0.005 0.008,-0.006 -0.0395,0.003 -0.0796,0.009 -0.11914,0.0117 -0.0361,-0.002 -0.0701,-0.0125 -0.10547,-0.0195 -0.0117,-0.003 -0.0239,-0.008 -0.0351,-0.0117 -0.0205,-0.007 -0.0106,-0.008 -0.0215,-0.0117 -0.0128,3.3e-4 -0.0263,0.003 -0.0391,0.004 -0.0364,6.1e-4 -0.10292,0.005 -0.14062,0 -0.0317,-0.004 -0.0643,-0.01 -0.0957,-0.0156 -0.0773,0.004 -0.15272,6.6e-4 -0.22851,-0.0156 -0.29473,-0.005 -0.24199,-0.0175 -0.56055,-0.0215 -0.007,-9e-5 -0.0128,8e-5 -0.0195,0 -0.24794,0.009 -0.49607,0.0106 -0.74414,0.01 -0.0622,-2.7e-4 -0.1253,-0.003 -0.1875,-0.002 -0.0702,0.001 -0.13879,0.006 -0.20899,0.008 -0.2095,0.02 -0.42098,0.01 -0.63086,0.008 -0.0208,-1e-5 -0.0417,-5e-5 -0.0625,0 -0.0625,1.5e-4 -0.125,0.002 -0.1875,0 -0.14304,-0.005 -0.28497,-0.0173 -0.42773,-0.0273 -0.11194,-0.006 -0.22393,-0.0122 -0.33594,-0.0176 z m 169.47071,8.84179 c -3.88776,2.3e-4 -5.45115,0.55123 -7.98633,2.81641 -2.59416,2.31789 -3.15235,3.56476 -3.15235,7.04102 0,5.21746 2.26216,7.8465 10.90821,12.68164 4.06186,2.27152 6.26569,4.13317 6.85547,5.89453 0.005,0.005 0.009,0.0105 0.0137,0.0156 v 0.002 c 0.003,0.003 0.007,0.006 0.01,0.01 v 0.002 l 0.002,0.002 c 0.002,0.003 0.004,0.006 0.006,0.01 10e-4,0.002 0.003,0.004 0.004,0.006 0.003,0.004 0.009,0.007 0.0117,0.0117 0.007,0.009 0.0116,0.032 0.0156,0.043 10e-4,0.003 0.003,0.006 0.004,0.01 0.003,0.008 0.005,0.0189 0.008,0.0273 0.002,0.004 0.005,0.0106 0.006,0.0137 2.5e-4,0.002 -9e-5,0.01 0,0.0117 v 0.0117 c 6.1e-4,0.002 8e-5,0.01 0.002,0.0117 0.002,0.007 0.0117,0.0117 0.0117,0.0117 2e-5,5e-4 -4e-5,0.0107 0,0.0117 0,-0.003 0.01,-0.002 0.0117,0.004 l 0.0117,0.0117 v 0.006 c 0.01,0.0181 0.012,0.023 0.0176,0.0547 0.004,0.0103 0.008,0.0189 0.0117,0.0293 0.002,0.004 0.0107,0.008 0.0117,0.0117 0.002,0.0119 -3.8e-4,0.0251 0.002,0.0371 2e-4,0.002 0.0117,0.008 0.0117,0.01 v 0.002 c 0.001,0.004 0.003,0.007 0.004,0.01 h -0.002 c 0.003,0.0128 0.006,0.0265 0.01,0.0391 v 0.002 c 0.003,0.0194 0.006,0.0248 0.008,0.0352 3e-5,-0.004 1.2e-4,-0.008 0,-0.0117 6.6e-4,0.003 -6e-5,0.005 0.002,0.008 6.1e-4,0.004 0.002,0.0131 0.002,0.0195 v 0.002 c 5e-4,0.002 0.002,0.0101 0.002,0.0117 -2.9e-4,-0.002 -8e-5,0.002 0.002,0.006 2.9e-4,0.002 -2.9e-4,0.004 0,0.006 9.9e-4,0.008 0.003,0.0156 0.004,0.0234 v 0.002 c 0.009,0.0206 0.012,0.0314 0.0137,0.0625 8.5e-4,0.008 7e-5,0.0157 -0.002,0.0234 -1.6e-4,0.001 10e-5,0.003 0,0.004 -10e-4,0.004 -0.004,0.0147 -0.002,0.0117 l 0.004,-0.008 c 0.004,0.0144 0.008,0.0285 0.0117,0.043 -9.5e-4,0.0245 -0.002,0.0497 -0.002,0.0742 2e-5,0.001 -5e-5,0.003 0,0.004 9.9e-4,0.005 0.005,0.0104 0.006,0.0156 0.002,0.0133 7.5e-4,0.0311 0,0.0449 -9.9e-4,0.014 -0.002,0.0188 -0.002,0.0391 -4e-5,0.0135 -1e-5,0.0275 0,0.041 3e-5,0.017 0,0.0338 0,0.0508 v 0.0684 0.0605 0.0781 c 0,0.002 2.8e-4,0.006 0,0.008 -9.9e-4,0.0111 -0.004,0.0208 -0.006,0.0312 2e-5,10e-4 -5e-5,0.0107 0,0.0117 5.4e-4,0.0159 0.004,0.0329 0.002,0.0488 l -0.006,0.0391 -0.002,0.002 v 0.01 0.008 h 0.002 c 2.4e-4,0.0144 1.8e-4,0.0287 0,0.043 -5e-5,0.004 6.3e-4,0.009 0,0.0117 -0.004,0.0188 -0.008,0.0359 -0.0117,0.0547 -5e-5,0.0168 -0.003,0.0364 -0.008,0.0527 v 0.004 c -6.1e-4,0.002 8e-5,0.01 -0.002,0.0117 -6.1e-4,0.005 8e-5,0.0109 -0.002,0.0156 v 0.004 c -1.3e-4,0.001 1.2e-4,0.007 0,0.008 1e-4,10e-4 0.002,0.003 0.002,0.004 -10e-4,0.0159 -0.004,0.031 -0.006,0.0469 -0.01,0.03 -0.006,0.0258 -0.0137,0.0449 l -0.002,0.004 v 0.002 c -1.3e-4,0.003 6e-5,0.005 0,0.008 -0.003,0.0247 -0.007,0.0422 -0.0137,0.0684 -0.001,0.003 -0.003,0.007 -0.004,0.01 -0.002,0.005 -0.01,0.009 -0.0117,0.0137 -1.8e-4,0.004 2.4e-4,0.009 0,0.0137 -0.006,0.0214 -0.007,0.0274 -0.0156,0.0449 v 0.002 c -4.7e-4,0.003 -0.0107,0.009 -0.0117,0.0117 -0.005,0.0251 -0.0109,0.048 -0.0234,0.0703 -0.002,0.005 -0.009,0.009 -0.0117,0.0137 -3.7e-4,0.001 -0.002,0.005 -0.002,0.004 v 0.004 c -0.004,0.0161 -0.007,0.0308 -0.0117,0.0469 0.001,0.0167 -0.007,0.0348 -0.0117,0.0508 -6e-4,0.002 5e-5,0.01 -0.002,0.0117 10e-5,0.0114 -0.01,0.0232 -0.0117,0.0352 -5.1e-4,0.003 1.8e-4,0.009 -0.002,0.0117 -9e-5,0.002 2.5e-4,0.01 0,0.0117 -0.003,0.0193 -0.0109,0.0374 -0.0156,0.0508 v 0.002 0.004 0.002 c -0.002,0.026 -0.003,0.0413 -0.0176,0.0664 -0.005,0.008 -0.01,0.0154 -0.0156,0.0234 l -0.002,0.002 c -0.004,0.0104 -0.01,0.0194 -0.0156,0.0332 -0.002,0.005 -0.01,0.0104 -0.0117,0.0156 -0.008,0.0115 -0.0173,0.0217 -0.0254,0.0332 -0.004,0.006 -0.01,0.0129 -0.0137,0.0195 -0.003,0.005 -0.008,0.009 -0.0117,0.0137 -0.005,0.005 -0.0103,0.0109 -0.0156,0.0156 -0.0247,0.0257 -0.0334,0.032 -0.043,0.0391 -0.20907,0.45706 -0.48728,0.91552 -0.91016,1.38282 -1.99474,2.20417 -7.33698,2.55582 -12.33789,0.8125 -3.5708,-1.24478 -3.58645,-1.23858 -4.50976,1.76953 -0.53193,1.73302 -0.11696,2.35399 2.125,3.17187 4.2833,1.56257 14.00023,1.37388 17.30664,-0.33593 8.30013,-4.29216 6.22112,-14.36434 -4.10352,-19.88282 -7.18408,-3.83985 -8.91602,-5.44948 -8.91601,-8.28125 0,-3.55467 3.72199,-4.88276 9.5625,-3.41211 5.21843,1.31402 4.9438,1.38441 5.8457,-1.55468 0.54051,-1.76132 0.0926,-2.33736 -2.52539,-3.25 -1.74967,-0.60993 -5.3546,-1.10915 -8.01367,-1.10938 z m -109.34375,0.6875 c -0.47216,0.10261 -3.68196,7.67885 -7.13282,16.83594 -5.00893,13.29152 -6.08822,17.13518 -5.35547,19.0625 0.50485,1.32781 1.26755,2.41409 1.69532,2.41406 0.42778,0 2.96012,-5.66688 5.6289,-12.59374 2.66878,-6.92707 5.23135,-12.2146 5.69336,-11.75 0.46201,0.46456 2.82988,6.00018 5.26172,12.30078 2.43185,6.3006 4.81898,11.58289 5.30469,11.73828 0.68572,0.21937 12.42332,-26.21902 15.99023,-36.01758 0.20264,-0.55665 0.2338,-0.91359 0.10352,-1.15625 -0.0117,-0.004 -0.0235,-0.008 -0.0352,-0.0117 -0.008,-0.007 -0.008,-0.006 -0.0156,-0.0117 -0.0165,-0.003 -0.0227,-0.006 -0.13086,-0.0273 -0.1115,-0.0307 -0.21895,-0.0733 -0.32227,-0.125 -0.0137,-0.007 -0.0453,-0.0236 -0.0547,-0.0293 0.0836,0.0252 0.16379,0.0566 0.24609,0.0859 0.0378,-0.006 0.0755,-0.0117 0.11328,-0.0176 0.0389,0.0315 0.0931,0.0746 0.10156,0.0801 0.005,0.003 0.0104,0.005 0.0156,0.008 -0.0487,-0.0382 -0.0918,-0.0714 -0.11328,-0.0879 0.0312,-0.005 0.0627,-0.009 0.0937,-0.0137 -0.0993,-0.0877 -0.23034,-0.15731 -0.41602,-0.19922 -0.11199,-6e-5 -0.22401,-1.8e-4 -0.33594,0 -0.15042,-1.4e-4 -0.30076,-0.002 -0.45117,0 -0.15069,0.002 -0.30477,0.008 -0.45508,-0.008 -0.003,7.7e-4 -0.005,-5.5e-4 -0.008,0.002 -0.14412,0.0432 -0.29201,0.0826 -0.44531,0.0645 -0.017,-0.001 -0.0339,6e-4 -0.0508,-0.002 -10e-4,0 -0.005,5.5e-4 -0.004,-0.002 0.0119,-0.006 0.05,-0.0157 0.0371,-0.0137 -0.0979,0.0146 -0.19634,0.0499 -0.29687,0.0449 0.0238,-0.004 0.0243,-0.005 -0.0215,-0.002 -0.003,9.9e-4 -0.005,-2.4e-4 -0.008,0.002 -0.0185,0.001 -0.0468,0.007 -0.0391,0.002 -0.0196,0.001 -0.0726,0.007 -0.10547,0.01 h -0.002 c -0.0225,0.007 -0.0459,0.0127 -0.0684,0.0195 h -0.002 c -0.0315,0.0148 -0.072,0.0319 -0.1289,0.0488 -0.0746,0.0222 -0.15168,0.0301 -0.22852,0.043 h -0.002 c -0.018,0.005 -0.027,0.006 -0.0273,0.004 -2.5e-4,-0.002 -0.006,-0.003 -0.0234,-0.004 -0.0782,0.0293 -0.15691,0.0629 -0.24024,0.0742 -0.0264,0.004 -0.0534,0.004 -0.0801,0.006 -0.0475,0.0208 -0.0967,0.0404 -0.15625,0.0527 -0.0476,0.0101 -0.0959,0.0129 -0.14453,0.0156 -0.0811,0.0299 -0.16674,0.0601 -0.23828,0.0742 -0.0251,0.005 -0.0508,0.008 -0.0762,0.0117 -0.02,0.0193 -0.0753,0.0135 -0.10742,0.0176 -0.0104,0.001 -0.0208,-6.2e-4 -0.0312,0.002 -0.0183,0.002 -0.0363,0.003 -0.0547,0.004 h -0.002 c -0.0477,0.003 -0.0949,0.009 -0.14258,0.0117 -0.006,0.003 -0.0134,0.004 -0.0195,0.008 0.0343,-8.6e-4 0.0731,0.001 0.0937,-0.002 0.0145,-0.001 0.0271,-0.005 0.041,-0.01 -0.009,0.002 -0.0103,0.004 -0.0156,0.006 -0.0347,0.01 -0.16226,0.0478 -0.18946,0.0508 -0.005,5.1e-4 -0.009,-4.5e-4 -0.0137,0 -0.0314,0.0154 -0.0631,0.0288 -0.0957,0.0391 -0.0712,0.0455 -0.14773,0.0829 -0.23047,0.10157 -0.0351,0.008 -0.0698,0.0197 -0.10547,0.0273 -0.005,0.003 -0.0107,0.007 -0.0156,0.01 0.003,-0.003 0.006,-0.007 0.01,-0.01 -0.005,9.2e-4 -0.009,-5.5e-4 -0.0137,0.002 -0.0273,0.0126 -0.0543,0.0222 -0.082,0.0332 -0.0125,0.008 -0.0247,0.017 -0.0371,0.0254 0.0355,-0.01 0.0673,-0.0249 0.10547,-0.041 0.002,-9.1e-4 0.004,4.8e-4 0.006,-0.002 -0.0496,0.0437 -0.1021,0.0844 -0.1543,0.125 -0.0898,0.0698 -0.20239,0.10643 -0.30664,0.14453 -0.0116,7.8e-4 -0.0237,-5.5e-4 -0.0352,0.002 -0.0929,0.0423 -0.0954,0.0471 -0.125,0.0547 -1.17998,1.16741 -2.27412,3.80807 -4.85351,10.28515 -2.40929,6.05002 -4.7334,11.36662 -5.16406,11.81446 -0.43066,0.44785 -3.00844,-4.72715 -5.72852,-11.5 -2.71859,-6.7691 -5.32848,-12.22336 -5.80273,-12.12696 z m 22.0957,1.21876 c 0.0164,-0.0108 0.0342,-0.0188 0.0508,-0.0293 -0.0131,4e-4 -0.026,0.001 -0.0391,-0.002 -0.0377,-0.007 0.0156,-0.0141 0.0781,-0.0215 0.0166,-0.01 0.0318,-0.0219 0.0488,-0.0312 -0.063,0.004 -0.126,0.006 -0.18945,0.008 -0.0557,0.0364 -0.11334,0.0679 -0.16797,0.10938 0.0161,9.7e-4 0.0408,0.003 0.0527,0.004 0.033,0.002 0.0588,0.001 0.084,-0.004 0.0274,-0.01 0.0544,-0.0222 0.082,-0.0332 z m -0.082,0.0332 c -0.0934,0.0326 -0.17995,0.0565 -0.25196,0.0742 -0.0156,0.0131 -0.0333,0.0178 -0.0488,0.0312 0.0495,-0.004 0.0945,-0.007 0.19531,-0.0137 0.0497,-0.032 0.0994,-0.0665 0.14844,-0.0996 -0.0133,0.004 -0.0283,0.006 -0.043,0.008 z m 0.17773,-0.0684 c 0.002,-3.9e-4 0.004,4.1e-4 0.006,0 0.0127,-0.007 0.0238,-0.017 0.0371,-0.0254 -0.0118,0.006 -0.0228,0.0118 -0.0352,0.0176 z m 0.043,-0.0254 h 0.002 c 0.0165,-0.002 0.038,-0.004 0.0488,-0.006 0.0154,-0.009 0.0299,-0.0181 0.0449,-0.0273 -0.0149,0.002 -0.0299,0.004 -0.0449,0.006 -0.01,0.006 -0.0193,0.0122 -0.0293,0.0176 0.007,-0.005 0.0129,-0.0108 0.0195,-0.0156 -0.0117,0.001 -0.0234,-5.5e-4 -0.0352,0.002 -0.005,0.006 -0.0134,0.0162 -0.0254,0.0273 0.007,-8.6e-4 0.0128,-0.003 0.0195,-0.004 z m 2.35938,-0.58594 c 0.009,-6e-4 0.0404,-0.004 0.0469,-0.004 0.0397,-0.0121 0.12739,-0.0377 0.0937,-0.0312 -0.0992,0.0202 -0.13172,0.0301 -0.14062,0.0352 z m 51.34375,-0.29883 c -0.76975,0.37004 -17.45899,36.5079 -17.45899,37.80469 0,0.19856 1.4625,0.22535 3.25,0.0488 2.56735,-0.24754 3.54969,-0.99708 4.67969,-3.56446 l 1.43164,-3.25 h 2.78906 c 0.0406,-0.0413 0.1197,-0.0474 0.25196,0 h 0.79101 c 0.0435,-0.009 0.0808,-0.0156 0.13867,-0.0156 h 0.25977 0.33398 0.22852 c 0.16417,0 0.32802,-1e-5 0.49219,0 0.14041,1e-5 0.2795,2e-5 0.41992,0 0.0865,4e-5 0.17326,6.9e-4 0.25976,0 0.0876,0 0.17608,0.002 0.26368,0.004 -0.0219,0.0196 -0.002,0.001 0.0703,-0.006 0.12292,-0.009 0.26389,-0.01 0.38867,0.0176 h 1.61719 3.46289 c 0.0261,-0.006 0.0429,-0.0116 0.0898,-0.0215 0.0737,-0.008 0.14681,-0.0184 0.22071,-0.0254 0.0259,-0.002 0.0521,-0.003 0.0781,-0.002 0.0261,6.2e-4 0.0521,0.002 0.0781,0.002 h 0.32813 c 0.15916,0 0.30133,0.0172 0.42773,0.0469 h 3.6211 l 0.56445,1.35352 0.0117,0.0273 0.006,0.0156 0.002,0.002 c 0.002,0.002 0.005,0.004 0.006,0.006 0.003,0.004 0.005,0.009 0.008,0.0137 -10e-4,-0.001 -0.003,-0.002 -0.004,-0.004 l -0.006,-0.006 0.0234,0.0566 c 0.004,-0.003 0.006,-0.006 0.006,-0.0117 0.007,0.0139 0.0121,0.0264 0.0176,0.041 0.007,0.014 -10e-5,3.2e-4 0.0117,0.0215 0.0163,0.0266 0.032,0.0542 0.041,0.084 0.007,0.02 0.0145,0.0401 0.0195,0.0606 0.001,0.004 -7e-4,0.008 0.002,0.01 5.6e-4,0.001 0.002,0.004 0.002,0.008 0.009,0.0133 0.0158,0.0266 0.0215,0.041 l 0.002,0.002 c 0.005,0.006 0.0107,0.0118 0.0137,0.0215 v 0.002 c 10e-4,0.002 0.002,0.002 0.004,0.004 0.004,0.005 0.008,0.015 0.01,0.0254 v 0.002 0.002 c 0.001,0.003 0.003,0.005 0.004,0.008 2.7e-4,0.002 -2e-4,0.004 0,0.006 v 0.0117 c 0.002,0.005 0.009,0.009 0.0117,0.0117 2.2e-4,0.003 0.002,0.009 0.002,0.0117 -3e-5,-0.002 1.5e-4,-0.008 0,-0.01 0.002,0.004 0.0107,0.009 0.0117,0.0117 0.01,0.0201 0.009,0.0276 0.0117,0.0391 0.002,0.005 0.0107,0.0101 0.0117,0.0156 v 0.008 l 0.002,0.0117 v 0.004 0.0117 0.002 c 3.7e-4,0.003 -3.5e-4,0.009 0,0.0117 h 0.0117 l 0.0117,0.0117 v 0.002 c 9.3e-4,0.001 0.0107,0.01 0.0117,0.0117 2.9e-4,0.001 -2e-5,0.0107 0,0.0117 0.002,0.005 0.01,0.009 0.0117,0.0137 -10e-4,-0.005 0.0107,0.009 0.0117,0.0137 v 0.0117 0.002 l 0.004,0.0117 v 0.006 h 0.002 v 0.002 0.002 l 0.0117,0.002 h 0.008 c 10e-4,0.002 0.005,0.007 0.008,0.0176 0.003,0.005 0.003,0.0103 0.0117,0.0234 l -0.006,-0.006 c 9e-5,0.001 -2.4e-4,0.002 0,0.004 v 0.002 c 2.7e-4,0.002 -9.9e-4,0.004 0.002,0.006 h 0.002 c 9.9e-4,2.3e-4 0.003,-0.001 0.004,0.002 -5.5e-4,-0.002 8.1e-4,-0.004 0,-0.006 9.9e-4,0.002 0.003,0.01 0.002,0.008 0.007,0.007 0.0129,0.024 0.0176,0.0352 l 0.002,0.002 v 0.002 c 4.6e-4,0.001 -3.8e-4,0.007 0,0.008 -2.7e-4,-0.002 -0.002,-0.006 -0.002,-0.008 -0.002,-0.004 -0.007,-0.006 -0.0117,-0.01 0.002,0.005 0.005,0.008 0.008,0.0137 10e-4,0.002 0.003,0.009 0.004,0.0117 v 0.004 h 0.002 c 0.002,0.007 0.005,0.0107 0.006,0.0176 l 0.002,0.004 c 0.0197,0.03 0.0306,0.0573 0.0332,0.082 l 0.56055,1.3418 c 1.21825,2.9157 1.97199,3.50001 4.51367,3.5 1.67806,0 3.0413,-0.33749 3.0293,-0.75 -0.065,-2.23992 -16.71403,-37.67631 -17.51953,-37.28907 z m -103.48633,0.0391 1.59765,3.75 c 0.87832,2.0625 2.42157,5.77504 3.42969,8.25 1.00812,2.47501 2.60614,6.30003 3.55078,8.5 l 1.7168,4 1.40625,-4 c 1.3346,-3.79615 1.24379,-4.42028 -1.77734,-12.25 -3.11455,-8.07176 -3.25521,-8.24999 -6.55274,-8.25 z m 61.02734,0 v 10.14844 c 0.0375,0.25555 0.0407,0.51652 0.0254,0.77344 -0.012,0.20391 -0.01,0.0796 -0.01,0.20117 0.003,0.38041 0.005,0.76215 0.004,1.14258 -0.001,0.30056 -1.1e-4,0.59983 0,0.90039 0,0.0393 -0.008,0.0806 0,0.11914 0.004,0.0211 -0.001,-0.0455 0.01,-0.0644 0.003,-0.007 0.009,0.0154 0.01,0.0234 0.0197,0.14241 0.0405,0.28448 0.0527,0.42773 0.0134,0.16154 0.003,0.32493 -0.004,0.48633 -0.0197,0.22347 -0.007,0.44969 -0.006,0.67383 -1.4e-4,0.24599 -1.9e-4,0.49229 0,0.73828 3.2e-4,0.27741 3e-5,0.55462 0,0.83203 0.01,0.3049 -0.005,0.59949 -0.0527,0.90234 -0.007,0.0442 -0.0195,0.0873 -0.0293,0.13086 v 1.56445 6.25 c 0.008,0.0489 0.0194,0.0974 0.0254,0.14649 0.0192,0.15701 0.005,0.33447 -0.002,0.49219 -0.0105,0.0289 -0.009,0.15021 -0.008,0.2539 0.0947,0.30589 0.14603,0.6334 0.14843,0.96094 0.0735,0.21194 0.12013,0.37534 0.13086,0.63477 0.005,0.11403 -0.01,0.22805 -0.0195,0.34179 -0.0156,0.18796 -0.037,0.10064 -0.0137,0.18164 0.01,0.0993 -0.0168,0.20464 0.006,0.30274 9e-4,0.004 0.009,0.003 0.0137,0.004 0.007,0.0292 0.0165,0.0582 0.0195,0.0879 0.0186,0.17963 0.0298,0.35911 0.0449,0.53906 0.003,0.44074 -0.0226,0.88153 -0.0176,1.32226 0.004,0.17025 0.003,0.33951 0.002,0.50977 -0.005,0.60994 -0.1319,1.09701 -0.33008,1.46484 v 5.50781 h 3 3 v -4.46289 c -0.15742,-0.041 -0.21673,-0.10816 0,-0.21093 v -1.82618 -6.5 h 7 c 6.8,0 7,-0.0714 7,-2.5 0,-2.42858 -0.2,-2.5 -7,-2.5 h -7 v -7.5 -7.5 h 8 c 7.86667,0 8,-0.0417 8,-2.5 v -2.5 h -11 z m 93,0 v 0.0137 c 0.002,-0.004 0.006,-0.008 0.01,-0.0137 z m 0.0801,0 c -0.0121,0.009 -0.021,0.01 -0.0234,0.006 -0.0234,0.0173 -0.0456,0.0316 -0.0566,0.0332 v 0.1289 c 0.003,0.0303 0.003,0.0596 0,0.0898 v 0.33594 0.002 c 0.009,0.026 0.0126,0.0538 0.004,0.0293 -5e-4,0.0117 3.7e-4,0.009 0,0.01 v 0.002 c 10e-4,0.007 0.002,0.0131 0.004,0.0195 3.6e-4,0.002 3e-5,0.004 0,0.006 4.3e-4,0.002 -2.1e-4,0.004 0,0.006 0.002,0.0143 -0.002,0.027 -0.004,0.041 0,10e-4 -1e-5,0.003 0,0.004 3e-5,0.0113 1.8e-4,0.0219 0,0.0332 -8e-5,0.002 -0.002,0.003 -0.002,0.004 v 0.002 c 9.9e-4,0.0117 0.0184,0.023 0,0.0351 -3e-5,0.001 2.2e-4,0.002 0,0.004 l -0.002,-0.002 v 0.0117 c 2.4e-4,0.0155 0.001,0.001 0,0.0195 v 0.0176 c 0.002,0.0102 0.002,0.0209 0.002,0.0312 -10e-6,0.0101 0,0.0213 0,0.0312 v 0.0293 c 2e-5,0.0159 4e-5,0.0329 0,0.0488 0,0.0111 3.6e-4,0.0222 0,0.0332 v 0.002 c 0.005,0.0141 0.011,0.0282 0.0117,0.0332 -10e-4,-0.002 -0.005,-0.005 -0.008,-0.0117 0.002,0.007 -0.001,0.0131 0.002,0.0195 10e-4,0.0103 0.004,0.0206 0.004,0.0312 0,0.006 -1e-5,0.0135 0,0.0195 0,0.009 6e-5,0.0164 0,0.0254 -1e-5,0.008 5.2e-4,0.0199 0,0.0293 -4.3e-4,-0.006 -0.003,-0.0115 -0.004,-0.0176 -10e-4,-0.003 -0.004,-0.01 -0.004,-0.008 0.002,0.0181 0.006,0.0367 0.008,0.0547 -0.001,0.007 -0.002,0.0145 -0.004,0.0215 -10e-4,0.003 -0.003,0.005 -0.004,0.008 v 0.002 c 2.2e-4,0.008 -0.002,0.0156 -0.002,0.0234 -1.2e-4,0.008 0.002,0.017 -0.002,0.0254 v 0.0137 0.0117 0.0195 0.0117 0.0156 c 0,0.007 -9e-5,0.0145 0,0.0215 v 0.004 0.002 c 2e-4,0.001 -1.6e-4,0.005 0,0.006 1.3e-4,8.6e-4 -6e-5,0.0135 0,0.0117 8.9e-4,0.009 0.001,0.0177 0,0.0273 v 1.09765 c 0,2.29634 0.36667,2.50005 4.5,2.5 h 4.5 v 15.83399 c 0,8.70833 0.29935,16.13334 0.66602,16.5 0.36666,0.36666 1.70685,0.66604 2.97656,0.66601 2.30543,0 2.30763,-0.022 2.58203,-16.25 l 0.27539,-16.25 3.86914,-0.24804 c 0.003,-0.005 0.0101,-0.01 0.0195,-0.0117 0.002,-2.8e-4 0.005,1e-5 0.008,0 h 0.0117 0.01 0.0215 0.0312 c 0.005,0 0.01,0.01 0.0137,0.0117 l 0.67578,-0.0449 0.0371,-0.004 c 0.006,-0.003 0.0112,-0.01 0.0137,-0.01 l 0.0391,-0.01 c 4.28852,-0.27518 4.75,-0.54235 4.75,-2.75 v -2.44532 h -12.5 z m -0.0781,1.24415 h -0.002 c -1.4e-4,0.001 1.1e-4,0.004 0,0.006 3.9e-4,-0.002 0.002,-0.005 0.002,-0.006 z m 0.006,-0.18946 -0.002,-0.002 c -10e-5,0.002 2.9e-4,0.006 0,0.008 4.6e-4,-0.002 0.002,-0.004 0.002,-0.006 z m -102.03906,-0.7832 c -10e-4,7.9e-4 -0.002,0.003 -0.004,0.004 0.006,-0.001 0.0113,-0.002 0.0176,-0.004 -0.005,4.2e-4 -0.009,-4.6e-4 -0.0137,0 z m -0.0137,0.002 c -0.0506,0.005 -0.0534,0.004 -0.13086,0.0117 -0.0293,0.003 0.0606,0.004 0.0898,0 0.0103,-0.001 0.0212,-0.004 0.0332,-0.006 0.003,-0.002 0.005,-0.004 0.008,-0.006 z m -0.46094,0.10742 c -0.0425,0.002 -0.1176,0.008 -0.24804,0.0254 -0.033,0.004 0.006,0.007 0.0586,0.006 0.0111,-0.004 0.022,-0.008 0.0332,-0.0117 0.008,-0.002 -0.0108,0.004 -0.0234,0.01 0.0418,-0.001 0.0897,-0.002 0.11523,-0.006 0.0231,-0.004 0.0527,-0.0137 0.082,-0.0234 -0.006,4e-5 -0.008,-4.5e-4 -0.0176,0 z m -1.15039,0.0801 c -10e-4,4.1e-4 -0.003,0.002 -0.004,0.002 -0.0155,0.0232 -0.0258,0.0382 -0.0488,0.0703 0.0154,-0.0196 0.0295,-0.0388 0.0527,-0.0723 z m 0.78906,0.006 c -0.0241,0.001 -0.0482,0.004 -0.0723,0.006 0.0182,5.7e-4 0.0478,0.001 0.0664,-0.004 0.002,-5e-4 0.004,2.4e-4 0.006,-0.002 z m -0.91211,0.18555 c -0.0148,0.001 -0.0301,-0.001 -0.0449,0.002 l -0.006,0.006 c 0.009,2.6e-4 0.0174,1.4e-4 0.0312,0 h 0.002 c 0.007,-0.003 0.0111,-0.005 0.0176,-0.008 z m -0.25,0.0606 c -0.0204,7.8e-4 -0.0402,0.002 -0.0605,0.004 -0.002,0.003 -0.004,0.007 -0.006,0.01 0.0125,1.5e-4 0.0243,-0.002 0.0391,-0.002 0.009,-0.004 0.0192,-0.008 0.0273,-0.0117 z m -0.10156,0.006 c -0.0206,0.002 -0.009,0.005 0.0117,0.006 0.001,-0.002 0.003,-0.004 0.004,-0.006 -0.005,4.9e-4 -0.0104,-5.9e-4 -0.0156,0 z m -0.0351,0.0527 c -0.0547,0.002 -0.10994,0.005 -0.16407,0.0117 -0.046,0.006 0.0984,0.0193 0.14063,0 0.0121,-0.006 0.0159,-0.007 0.0273,-0.0117 -0.001,5e-5 -0.003,-5e-5 -0.004,0 z m -0.65235,0.39062 c -0.0227,0.001 -0.0457,-2.7e-4 -0.0684,0.002 -0.003,0.003 -0.005,0.007 -0.008,0.01 0.0173,-0.002 0.0407,-0.004 0.0527,-0.006 0.008,-0.001 0.0158,-0.003 0.0234,-0.006 z m -0.0742,0.0274 c -0.009,0.004 -0.0184,0.009 -0.0273,0.0137 -9.1e-4,9e-4 5.5e-4,0.003 -0.002,0.004 0.0162,-0.009 0.0398,-0.0222 0.0293,-0.0176 z m 54.55078,11.5039 c 0.46286,0.1056 2.05106,3.1431 3.5293,6.75 l 2.6875,6.55664 h -5.9375 c -3.26574,0 -5.9375,-0.3735 -5.9375,-0.83007 0,-1.88784 4.88244,-12.65359 5.6582,-12.47657 z m 66.09571,3.2793 c 4e-4,0.003 0.002,0.006 0.002,0.01 -3.9e-4,-0.003 -0.002,-0.006 -0.002,-0.01 z m -26.08985,12.12695 c 10e-4,0.005 0.003,0.009 0.004,0.0137 1.8e-4,-0.002 4.6e-4,-0.003 0,-0.006 -0.001,-0.003 -0.005,-0.01 -0.004,-0.008 z m -0.0273,0.49024 c -7e-4,0.01 8e-4,0.0196 0,0.0293 0.01,0.0134 0.0192,0.027 0.0273,0.041 8.1e-4,-0.009 9.5e-4,-0.0238 -0.002,-0.0273 -0.006,-0.01 -0.0165,-0.027 -0.0254,-0.043 z m -0.14062,0.76172 -0.002,0.002 c -0.002,0.001 -0.002,0.009 0.0117,0.0352 -1.2e-4,-0.005 2.1e-4,-0.0104 0,-0.0156 -5e-5,-10e-4 6e-5,-0.003 0,-0.004 0,-0.004 -0.006,-0.0145 -0.01,-0.0176 z m -190.38868,1.65234 c -0.33418,0.002 -3.98242,5.9381 -8.10742,13.19141 -4.125,7.25331 -8.98924,15.80131 -10.80859,18.99609 l -3.30664,5.80859 h 22.05664 c 12.13185,0 22.05859,-0.24095 22.05859,-0.5371 0,-1.03412 -21.29021,-37.46199 -21.89258,-37.45899 z m 0.32618,5.16211 c 0.74586,0.92407 14.5664,25.0202 14.5664,25.39648 0,0.24092 -6.78717,0.4376 -15.08203,0.4375 h -15.08203 l 1.94141,-3.25 c 1.06782,-1.78747 4.51673,-7.6751 7.66406,-13.08398 3.14733,-5.40887 5.84377,-9.68387 5.99219,-9.5 z" />
    </g>
  </g>
</svg>
