<?xml version="1.0" encoding="UTF-8" standalone="no"?>
<!-- Created with Inkscape (http://www.inkscape.org/) -->

<svg
   version="1.1"
   id="svg9"
   width="184"
   height="41"
   viewBox="0 0 184 41"
   sodipodi:docname="only_logo.svg"
   inkscape:version="1.1.1 (3bf5ae0d25, 2021-09-20)"
   xmlns:inkscape="http://www.inkscape.org/namespaces/inkscape"
   xmlns:sodipodi="http://sodipodi.sourceforge.net/DTD/sodipodi-0.dtd"
   xmlns="http://www.w3.org/2000/svg"
   xmlns:svg="http://www.w3.org/2000/svg">
  <defs
     id="defs13" />
  <sodipodi:namedview
     id="namedview11"
     pagecolor="#ffffff"
     bordercolor="#666666"
     borderopacity="1.0"
     inkscape:pageshadow="2"
     inkscape:pageopacity="0.0"
     inkscape:pagecheckerboard="0"
     showgrid="false"
     inkscape:zoom="1.28"
     inkscape:cx="50"
     inkscape:cy="132.42187"
     inkscape:window-width="1920"
     inkscape:window-height="1017"
     inkscape:window-x="-8"
     inkscape:window-y="-8"
     inkscape:window-maximized="1"
     inkscape:current-layer="g15"
     width="499px" />
  <g
     inkscape:groupmode="layer"
     inkscape:label="Image"
     id="g15">
    <path
       style="fill:#3f48cc;stroke-width:0.390625;fill-opacity:1"
       d="m 16.810995,37.71859 c -1.12568,-1.72223 -0.83524,-4.71643 0.96056,-9.90206 4.37665,-12.63828 10.46965,-27.4924599 11.11376,-27.0943699 0.48698,0.30098 2.87571,5.40696 5.27432,11.2740499 0.96617,2.36328 2.6197,6.13254 3.67453,8.37613 1.66194,3.53487 1.99179,4.00403 2.47176,3.51562 0.30462,-0.30999 2.25515,-4.78237 4.33452,-9.93862 5.37437,-13.3269099 5.2212,-13.0859399 8.31851,-13.0859399 1.87948,0 2.79199,0.3111 2.79199,0.95188 0,1.61576 -14.97375,36.5481199 -15.66635,36.5481199 -0.54983,0 -2.50824,-4.19332 -6.07514,-13.00798 -3.31327,-8.18784 -4.66625,-11.21077 -5.01768,-11.21077 -0.41243,0 -2.52453,4.68247 -6.41657,14.22532 -2.27092,5.56807 -4.33747,10.19324 -4.59233,10.27816 -0.25487,0.0849 -0.78221,-0.33337 -1.17188,-0.92954 z"
       id="path457" />
    <path
       style="fill:#3f48cc;stroke-width:0.390625;fill-opacity:1"
       d="m 7.7063401,12.788325 c -2.63651,-6.2816299 -4.78983,-11.5529799 -4.78515,-11.7141099 0.005,-0.16113 1.16845,-0.29297 2.58616,-0.29297 2.34026,0 2.67503,0.10426 3.63521,1.13212 1.5195399,1.62668 5.9866099,12.9942499 5.9996199,15.2675299 0.01,1.66838 -1.81767,7.04379 -2.39074,7.03321 -0.1383,-0.003 -2.40858,-5.14416 -5.0450999,-11.42578 z"
       id="path572" />
    <path
       style="fill:#3f48cc;stroke-width:0.390625;fill-opacity:1"
       d="M 65.429685,20.3125 V 1.5625001 h 10.74219 10.74219 v 1.96279 c 0,1.74751 -0.10991,2.00458 -1.00199,2.34375 -0.5511,0.20953 -4.14825,0.38096 -7.99367,0.38096 h -6.99168 l 0.20588,6.5429699 c 0.11324,3.59863 0.28155,6.92071 0.37402,7.3824 0.15826,0.79015 0.46065,0.85378 5.15107,1.08396 2.74061,0.13449 5.68606,0.37198 6.54543,0.52775 1.48208,0.26866 1.56899,0.36285 1.68863,1.83015 0.19603,2.40423 -0.25278,2.55465 -7.62266,2.55465 h -6.37066 v 6.44531 6.44531 h -2.73437 -2.73438 z"
       id="path650" />
    <path
       style="fill:#3f48cc;stroke-width:0.390625;fill-opacity:1"
       d="m 90.655425,38.7211 c -0.40673,-0.6581 5.01018,-12.95746 13.956905,-31.6898499 3.42703,-7.17542 2.66983,-7.4471 7.62107,2.7343799 6.42905,13.22038 12.57129,27.17915 12.57129,28.56935 0,0.62566 -0.31597,0.72752 -2.25683,0.72752 -1.3333,0 -2.58586,-0.23046 -3.06086,-0.56316 -0.44221,-0.30974 -1.39657,-1.80388 -2.12079,-3.32031 l -1.31676,-2.75715 h -8.04691 -8.046925 l -1.34499,2.78054 c -0.73975,1.5293 -1.69173,3.02344 -2.11551,3.32031 -0.85332,0.59778 -5.49539,0.75547 -5.83969,0.19837 z M 113.96633,27.50502 c 0.12614,-0.12614 -0.69614,-2.45524 -1.8273,-5.17578 -2.62639,-6.31669 -3.43965,-7.98089 -3.98654,-8.15778 -0.2427,-0.0785 -0.87785,0.61194 -1.41146,1.53432 -1.51413,2.61735 -4.25712,8.94079 -4.48353,10.33598 l -0.20449,1.26016 2.2938,0.14237 c 4.19509,0.26037 9.3871,0.29315 9.61952,0.0607 z"
       id="path689" />
    <path
       style="fill:#3f48cc;stroke-width:0.390625;fill-opacity:1"
       d="m 137.65894,39.41326 c -3.49332,-0.29121 -6.62548,-1.24825 -7.59639,-2.32109 -0.60699,-0.67072 -0.63433,-0.96331 -0.21938,-2.34827 0.2607,-0.87014 0.72658,-1.679 1.0353,-1.79747 0.30871,-0.11846 2.39913,0.1545 4.64538,0.60659 2.24624,0.45209 4.89121,0.82198 5.8777,0.82198 3.12508,0 6.45001,-2.35598 6.45001,-4.57034 0,-1.42836 -3.47999,-4.6401 -8.0722,-7.44997 -7.19822,-4.40442 -9.89655,-7.61851 -9.89655,-11.78817 0,-3.0811499 0.74814,-5.0800999 2.59269,-6.9273699 2.13236,-2.13549 4.55099,-2.8579 9.56836,-2.8579 4.54413,0 7.55419,0.57462 8.62632,1.64675 0.63798,0.63797 0.73521,1.08275 0.52474,2.4002 -0.14209,0.88941 -0.41587,1.77484 -0.6084,1.96763 -0.20663,0.2069 -1.67881,0.0867 -3.59329,-0.29328 -6.69085,-1.32813 -10.15089,-0.59188 -10.68861,2.27439 -0.52965,2.8232899 0.71268,4.3232599 6.66413,8.0461699 9.38593,5.87134 10.95468,7.6364 10.91286,12.27845 -0.0272,3.02069 -0.8648,5.36883 -2.68189,7.5186 -1.8795,2.22359 -7.20212,3.32151 -13.54078,2.7931 z"
       id="path728" />
    <path
       style="fill:#3f48cc;stroke-width:0.390625;fill-opacity:1"
       d="M 167.38281,22.84409 V 6.2500001 h -3.73662 c -4.78908,0 -5.24776,-0.24019 -5.24776,-2.74812 v -1.93938 h 12.30469 12.30469 v 1.93938 c 0,2.50327 -0.46197,2.74812 -5.185,2.74812 h -3.67385 L 173.89088,16.86034 c -0.14194,5.83569 -0.25807,13.12264 -0.25807,16.19324 v 5.5829 l -1.26953,0.19198 c -0.69824,0.10559 -2.10449,0.28597 -3.125,0.40085 l -1.85547,0.20887 z"
       id="path767" />
  </g>
</svg>
